Radio-Canada-Light.ufo
<glyph name="ampersand" format="1">
  <advance width="660"/>
  <unicode hex="0026"/>
  <outline>
    <contour>
      <point x="58" y="170" type="curve" smooth="yes"/>
      <point x="58" y="61"/>
      <point x="136" y="-8"/>
      <point x="250" y="-8" type="curve" smooth="yes"/>
      <point x="430" y="-8"/>
      <point x="524" y="146"/>
      <point x="584" y="296" type="curve"/>
      <point x="530" y="316" type="line"/>
      <point x="476" y="166"/>
      <point x="390" y="48"/>
      <point x="260" y="48" type="curve" smooth="yes"/>
      <point x="178" y="48"/>
      <point x="122" y="97"/>
      <point x="122" y="170" type="curve" smooth="yes"/>
      <point x="122" y="222"/>
      <point x="149" y="270"/>
      <point x="210" y="305" type="curve" smooth="yes"/>
      <point x="350" y="385" type="line" smooth="yes"/>
      <point x="418" y="424"/>
      <point x="460" y="478"/>
      <point x="460" y="550" type="curve" smooth="yes"/>
      <point x="460" y="624"/>
      <point x="399" y="698"/>
      <point x="300" y="698" type="curve" smooth="yes"/>
      <point x="201" y="698"/>
      <point x="138" y="624"/>
      <point x="138" y="540" type="curve" smooth="yes"/>
      <point x="138" y="466"/>
      <point x="178" y="415"/>
      <point x="226" y="360" type="curve" smooth="yes"/>
      <point x="540" y="0" type="line"/>
      <point x="622" y="0" type="line"/>
      <point x="280" y="390" type="line" smooth="yes"/>
      <point x="231" y="446"/>
      <point x="200" y="486"/>
      <point x="200" y="540" type="curve" smooth="yes"/>
      <point x="200" y="597"/>
      <point x="239" y="642"/>
      <point x="300" y="642" type="curve" smooth="yes"/>
      <point x="361" y="642"/>
      <point x="400" y="597"/>
      <point x="400" y="540" type="curve" smooth="yes"/>
      <point x="400" y="492"/>
      <point x="375" y="458"/>
      <point x="325" y="430" type="curve" smooth="yes"/>
      <point x="180" y="350" type="line" smooth="yes"/>
      <point x="103" y="308"/>
      <point x="58" y="246"/>
    </contour>
  </outline>
</glyph>
<glyph name="asterisk" format="2">
	<advance width="607"/>
	<unicode hex="002A"/>
	<outline>
		<contour>
			<point x="75" y="535" type="line"/>
			<point x="268" y="483" type="line"/>
			<point x="139" y="322" type="line"/>
			<point x="193" y="283" type="line"/>
			<point x="303" y="453" type="line"/>
			<point x="413" y="283" type="line"/>
			<point x="467" y="322" type="line"/>
			<point x="339" y="483" type="line"/>
			<point x="532" y="535" type="line"/>
			<point x="511" y="598" type="line"/>
			<point x="327" y="529" type="line"/>
			<point x="336" y="720" type="line"/>
			<point x="270" y="720" type="line"/>
			<point x="280" y="529" type="line"/>
			<point x="96" y="598" type="line"/>
		</contour>
	</outline>
</glyph>
<glyph name="plus" format="2">
  <advance width="600"/>
  <unicode hex="002B"/>
  <outline>
    <contour>
      <point x="79.0" y="263" type="line"/>
      <point x="521.0" y="263" type="line"/>
      <point x="521.0" y="317" type="line"/>
      <point x="79.0" y="317" type="line"/>
    </contour>
    <contour>
      <point x="272.0" y="70" type="line"/>
      <point x="328.0" y="70" type="line"/>
      <point x="328.0" y="510" type="line"/>
      <point x="272.0" y="510" type="line"/>
    </contour>
  </outline>
</glyph>
<glyph name="hyphen" format="1">
  <advance width="382"/>
  <unicode hex="002D"/>
  <outline>
    <contour>
      <point x="75" y="250" type="line"/>
      <point x="307" y="250" type="line"/>
      <point x="307" y="300" type="line"/>
      <point x="75" y="300" type="line"/>
    </contour>
  </outline>
</glyph>
<glyph name="period" format="2">
	<advance width="216"/>
	<unicode hex="002E"/>
	<outline>
		<contour>
			<point x="65" y="36" type="curve" smooth="yes"/>
			<point x="65" y="12"/>
			<point x="84" y="-8"/>
			<point x="108" y="-8" type="curve" smooth="yes"/>
			<point x="133" y="-8"/>
			<point x="151" y="12"/>
			<point x="151" y="36" type="curve" smooth="yes"/>
			<point x="151" y="61"/>
			<point x="133" y="81"/>
			<point x="108" y="81" type="curve" smooth="yes"/>
			<point x="84" y="81"/>
			<point x="65" y="61"/>
		</contour>
	</outline>
</glyph>
<glyph name="zero" format="2">
	<advance width="600"/>
	<unicode hex="0030"/>
	<outline>
		<contour>
			<point x="47" y="345" type="curve" smooth="yes"/>
			<point x="47" y="104"/>
			<point x="165" y="-8"/>
			<point x="300" y="-8" type="curve" smooth="yes"/>
			<point x="435" y="-8"/>
			<point x="553" y="104"/>
			<point x="553" y="345" type="curve" smooth="yes"/>
			<point x="553" y="586"/>
			<point x="435" y="698"/>
			<point x="300" y="698" type="curve" smooth="yes"/>
			<point x="165" y="698"/>
			<point x="47" y="586"/>
		</contour>
		<contour>
			<point x="111" y="345" type="curve" smooth="yes"/>
			<point x="111" y="553"/>
			<point x="192" y="641"/>
			<point x="300" y="641" type="curve" smooth="yes"/>
			<point x="408" y="641"/>
			<point x="489" y="553"/>
			<point x="489" y="345" type="curve" smooth="yes"/>
			<point x="489" y="137"/>
			<point x="408" y="49"/>
			<point x="300" y="49" type="curve" smooth="yes"/>
			<point x="192" y="49"/>
			<point x="111" y="137"/>
		</contour>
	</outline>
</glyph>
<glyph name="one" format="2">
  <advance width="600"/>
  <unicode hex="0031"/>
  <outline>
    <contour>
      <point x="100.0" y="0" type="line"/>
      <point x="516.0" y="0" type="line"/>
      <point x="516.0" y="54" type="line"/>
      <point x="100.0" y="54" type="line"/>
    </contour>
    <contour>
      <point x="107.0" y="601" type="line"/>
      <point x="131.0" y="551" type="line"/>
      <point x="319.0" y="638" type="line"/>
      <point x="298.0" y="690" type="line"/>
    </contour>
    <contour>
      <point x="279.0" y="0" type="line"/>
      <point x="341.0" y="0" type="line"/>
      <point x="341.0" y="690" type="line"/>
      <point x="298.0" y="690" type="line"/>
      <point x="279.0" y="637" type="line"/>
    </contour>
  </outline>
</glyph>
<glyph name="three" format="2">
  <advance width="600"/>
  <unicode hex="0033"/>
  <outline>
    <contour>
      <point x="60.0" y="84" type="line"/>
      <point x="119.0" y="23"/>
      <point x="190.0" y="-8"/>
      <point x="279.0" y="-8" type="curve"/>
      <point x="410.0" y="-8"/>
      <point x="520.0" y="69"/>
      <point x="520.0" y="202" type="curve"/>
      <point x="520.0" y="331"/>
      <point x="407.0" y="396"/>
      <point x="290.0" y="396" type="curve" smooth="yes"/>
      <point x="241.0" y="396" type="line"/>
      <point x="188.0" y="384" type="line"/>
      <point x="188.0" y="343" type="line"/>
      <point x="267.0" y="343" type="line" smooth="yes"/>
      <point x="375.0" y="343"/>
      <point x="456.0" y="292"/>
      <point x="456.0" y="202" type="curve"/>
      <point x="456.0" y="106"/>
      <point x="381.0" y="48"/>
      <point x="279.0" y="48" type="curve"/>
      <point x="207.0" y="48"/>
      <point x="148.0" y="78"/>
      <point x="104.0" y="127" type="curve"/>
    </contour>
    <contour>
      <point x="77.0" y="634" type="line"/>
      <point x="447.0" y="634" type="line"/>
      <point x="496.0" y="648" type="line"/>
      <point x="496.0" y="690" type="line"/>
      <point x="77.0" y="690" type="line"/>
    </contour>
    <contour>
      <point x="188.0" y="384" type="line"/>
      <point x="263.0" y="384" type="line"/>
      <point x="496.0" y="648" type="line"/>
      <point x="457.0" y="690" type="line"/>
    </contour>
  </outline>
</glyph>
<glyph name="four" format="2">
  <advance width="600"/>
  <unicode hex="0034"/>
  <outline>
    <contour>
      <point x="46.0" y="191" type="line"/>
      <point x="82.0" y="149" type="line"/>
      <point x="428.0" y="690" type="line"/>
      <point x="365.0" y="690" type="line"/>
    </contour>
    <contour>
      <point x="46.0" y="149" type="line"/>
      <point x="536.0" y="149" type="line"/>
      <point x="536.0" y="203" type="line"/>
      <point x="92.0" y="203" type="line"/>
      <point x="46.0" y="191" type="line"/>
    </contour>
    <contour>
      <point x="381.0" y="0" type="line"/>
      <point x="443.0" y="0" type="line"/>
      <point x="443.0" y="690" type="line"/>
      <point x="381.0" y="690" type="line"/>
    </contour>
  </outline>
</glyph>
<glyph name="five" format="2">
	<advance width="600"/>
	<unicode hex="0035"/>
	<outline>
		<contour>
			<point x="70" y="84" type="line"/>
			<point x="129" y="23"/>
			<point x="200" y="-8"/>
			<point x="289" y="-8" type="curve" smooth="yes"/>
			<point x="420" y="-8"/>
			<point x="530" y="67"/>
			<point x="530" y="204" type="curve"/>
			<point x="530" y="338"/>
			<point x="422" y="420"/>
			<point x="306" y="420" type="curve"/>
			<point x="250" y="420"/>
			<point x="196" y="405"/>
			<point x="146" y="373" type="curve"/>
			<point x="138" y="317" type="line"/>
			<point x="183" y="349"/>
			<point x="234" y="364"/>
			<point x="290" y="364" type="curve"/>
			<point x="393" y="364"/>
			<point x="466" y="302"/>
			<point x="466" y="204" type="curve"/>
			<point x="466" y="104"/>
			<point x="391" y="48"/>
			<point x="289" y="48" type="curve" smooth="yes"/>
			<point x="217" y="48"/>
			<point x="158" y="78"/>
			<point x="114" y="127" type="curve"/>
		</contour>
		<contour>
			<point x="108" y="338" type="line"/>
			<point x="138" y="317" type="line"/>
			<point x="161" y="339" type="line"/>
			<point x="185" y="690" type="line"/>
			<point x="131" y="690" type="line"/>
		</contour>
		<contour>
			<point x="139" y="690" type="line"/>
			<point x="169" y="634" type="line"/>
			<point x="486" y="634" type="line"/>
			<point x="486" y="690" type="line"/>
		</contour>
	</outline>
</glyph>
<glyph name="six" format="2">
	<advance width="600"/>
	<unicode hex="0036"/>
	<outline>
		<contour>
			<point x="68" y="322" type="curve" smooth="yes"/>
			<point x="68" y="102"/>
			<point x="182" y="-8"/>
			<point x="308" y="-8" type="curve"/>
			<point x="437" y="-8"/>
			<point x="534" y="93"/>
			<point x="534" y="225" type="curve"/>
			<point x="534" y="352"/>
			<point x="437" y="434"/>
			<point x="322" y="434" type="curve"/>
			<point x="237" y="434"/>
			<point x="162" y="379"/>
			<point x="128" y="317" type="curve"/>
			<point x="128" y="252" type="line"/>
			<point x="180" y="332"/>
			<point x="237" y="379"/>
			<point x="318" y="379" type="curve"/>
			<point x="401" y="379"/>
			<point x="469" y="315"/>
			<point x="469" y="222" type="curve"/>
			<point x="469" y="122"/>
			<point x="406" y="48"/>
			<point x="313" y="48" type="curve"/>
			<point x="215" y="48"/>
			<point x="131" y="136"/>
			<point x="131" y="322" type="curve" smooth="yes"/>
			<point x="131" y="539"/>
			<point x="248" y="642"/>
			<point x="355" y="642" type="curve"/>
			<point x="400" y="642"/>
			<point x="435" y="630"/>
			<point x="475" y="604" type="curve"/>
			<point x="504" y="653" type="line"/>
			<point x="453" y="684"/>
			<point x="402" y="698"/>
			<point x="355" y="698" type="curve"/>
			<point x="212" y="698"/>
			<point x="68" y="566"/>
		</contour>
	</outline>
</glyph>
<glyph name="eight" format="1">
  <advance width="600"/>
  <unicode hex="0038"/>
  <outline>
    <contour>
      <point x="68.0" y="172" type="curve"/>
      <point x="68.0" y="66"/>
      <point x="156.0" y="-8"/>
      <point x="296.0" y="-8" type="curve" smooth="yes"/>
      <point x="448.0" y="-8"/>
      <point x="532.0" y="73"/>
      <point x="532.0" y="171" type="curve" smooth="yes"/>
      <point x="532.0" y="259"/>
      <point x="476.0" y="332"/>
      <point x="311.0" y="386" type="curve" smooth="yes"/>
      <point x="186.0" y="427"/>
      <point x="146.0" y="474"/>
      <point x="146.0" y="531" type="curve"/>
      <point x="146.0" y="587"/>
      <point x="204.0" y="644"/>
      <point x="302.0" y="644" type="curve" smooth="yes"/>
      <point x="391.0" y="644"/>
      <point x="450.0" y="586"/>
      <point x="450.0" y="525" type="curve"/>
      <point x="450.0" y="470"/>
      <point x="408.0" y="412"/>
      <point x="303.0" y="383" type="curve"/>
      <point x="343.0" y="357" type="line"/>
      <point x="459.0" y="385"/>
      <point x="507.0" y="453"/>
      <point x="507.0" y="532" type="curve"/>
      <point x="507.0" y="624"/>
      <point x="419.0" y="698"/>
      <point x="302.0" y="698" type="curve" smooth="yes"/>
      <point x="175.0" y="698"/>
      <point x="90.0" y="619"/>
      <point x="90.0" y="529" type="curve"/>
      <point x="90.0" y="444"/>
      <point x="146.0" y="382"/>
      <point x="291.0" y="331" type="curve" smooth="yes"/>
      <point x="433.0" y="281"/>
      <point x="472.0" y="232"/>
      <point x="472.0" y="169" type="curve" smooth="yes"/>
      <point x="472.0" y="106"/>
      <point x="414.0" y="46"/>
      <point x="296.0" y="46" type="curve" smooth="yes"/>
      <point x="193.0" y="46"/>
      <point x="125.0" y="103"/>
      <point x="125.0" y="178" type="curve"/>
      <point x="125.0" y="237"/>
      <point x="181.0" y="302"/>
      <point x="286.0" y="337" type="curve"/>
      <point x="246.0" y="363" type="line"/>
      <point x="129.0" y="330"/>
      <point x="68.0" y="258"/>
    </contour>
  </outline>
</glyph>
<glyph name="nine" format="2">
  <advance width="600"/>
  <unicode hex="0039"/>
  <outline>
    <contour>
      <point x="66.0" y="465" type="curve"/>
      <point x="66.0" y="338"/>
      <point x="163.0" y="256"/>
      <point x="278.0" y="256" type="curve"/>
      <point x="363.0" y="256"/>
      <point x="438.0" y="311"/>
      <point x="472.0" y="373" type="curve"/>
      <point x="472.0" y="438" type="line"/>
      <point x="420.0" y="358"/>
      <point x="363.0" y="311"/>
      <point x="282.0" y="311" type="curve"/>
      <point x="199.0" y="311"/>
      <point x="131.0" y="375"/>
      <point x="131.0" y="468" type="curve"/>
      <point x="131.0" y="568"/>
      <point x="194.0" y="642"/>
      <point x="287.0" y="642" type="curve"/>
      <point x="385.0" y="642"/>
      <point x="469.0" y="554"/>
      <point x="469.0" y="368" type="curve" smooth="yes"/>
      <point x="469.0" y="151"/>
      <point x="352.0" y="48"/>
      <point x="245.0" y="48" type="curve"/>
      <point x="200.0" y="48"/>
      <point x="165.0" y="60"/>
      <point x="125.0" y="86" type="curve"/>
      <point x="96.0" y="37" type="line"/>
      <point x="147.0" y="6"/>
      <point x="198.0" y="-8"/>
      <point x="245.0" y="-8" type="curve"/>
      <point x="388.0" y="-8"/>
      <point x="532.0" y="124"/>
      <point x="532.0" y="368" type="curve" smooth="yes"/>
      <point x="532.0" y="588"/>
      <point x="418.0" y="698"/>
      <point x="292.0" y="698" type="curve"/>
      <point x="163.0" y="698"/>
      <point x="66.0" y="597"/>
    </contour>
  </outline>
</glyph>
<glyph name="colon" format="1">
  <advance width="216"/>
  <unicode hex="003A"/>
  <outline>
    <contour>
      <point x="65" y="36" type="curve" smooth="yes"/>
      <point x="65" y="12"/>
      <point x="84" y="-8"/>
      <point x="108" y="-8" type="curve" smooth="yes"/>
      <point x="133" y="-8"/>
      <point x="151" y="12"/>
      <point x="151" y="36" type="curve" smooth="yes"/>
      <point x="151" y="61"/>
      <point x="133" y="81"/>
      <point x="108" y="81" type="curve" smooth="yes"/>
      <point x="84" y="81"/>
      <point x="65" y="61"/>
    </contour>
    <contour>
      <point x="65" y="473" type="curve" smooth="yes"/>
      <point x="65" y="449"/>
      <point x="84" y="429"/>
      <point x="108" y="429" type="curve" smooth="yes"/>
      <point x="133" y="429"/>
      <point x="151" y="449"/>
      <point x="151" y="473" type="curve" smooth="yes"/>
      <point x="151" y="498"/>
      <point x="133" y="518"/>
      <point x="108" y="518" type="curve" smooth="yes"/>
      <point x="84" y="518"/>
      <point x="65" y="498"/>
    </contour>
  </outline>
</glyph>
<glyph name="equal" format="2">
  <advance width="600"/>
  <unicode hex="003D"/>
  <outline>
    <contour>
      <point x="79.0" y="153" type="line"/>
      <point x="521.0" y="153" type="line"/>
      <point x="521.0" y="207" type="line"/>
      <point x="79.0" y="207" type="line"/>
    </contour>
    <contour>
      <point x="79.0" y="373" type="line"/>
      <point x="521.0" y="373" type="line"/>
      <point x="521.0" y="427" type="line"/>
      <point x="79.0" y="427" type="line"/>
    </contour>
  </outline>
</glyph>
<glyph name="greater" format="1">
  <advance width="600"/>
  <unicode hex="003E"/>
  <outline>
    <contour>
      <point x="120.0" y="62" type="line"/>
      <point x="520.0" y="264" type="line"/>
      <point x="520.0" y="302" type="line"/>
      <point x="484.0" y="303" type="line"/>
      <point x="120.0" y="123" type="line"/>
    </contour>
    <contour>
      <point x="120.0" y="455" type="line"/>
      <point x="484.0" y="274" type="line"/>
      <point x="520.0" y="270" type="line"/>
      <point x="520.0" y="316" type="line"/>
      <point x="120.0" y="518" type="line"/>
    </contour>
  </outline>
</glyph>
<glyph name="question" format="2">
	<advance width="498"/>
	<unicode hex="003F"/>
	<outline>
		<contour>
			<point x="192" y="36" type="curve" smooth="yes"/>
			<point x="192" y="12"/>
			<point x="211" y="-8"/>
			<point x="235" y="-8" type="curve" smooth="yes"/>
			<point x="260" y="-8"/>
			<point x="278" y="12"/>
			<point x="278" y="36" type="curve" smooth="yes"/>
			<point x="278" y="61"/>
			<point x="260" y="81"/>
			<point x="235" y="81" type="curve" smooth="yes"/>
			<point x="211" y="81"/>
			<point x="192" y="61"/>
		</contour>
		<contour>
			<point x="35" y="586" type="curve"/>
			<point x="77" y="552" type="line"/>
			<point x="114" y="612"/>
			<point x="167" y="639"/>
			<point x="227" y="639" type="curve"/>
			<point x="308" y="639"/>
			<point x="359" y="577"/>
			<point x="359" y="516" type="curve"/>
			<point x="359" y="465"/>
			<point x="334" y="430"/>
			<point x="267" y="386" type="curve" smooth="yes"/>
			<point x="218" y="354"/>
			<point x="204" y="318"/>
			<point x="207" y="263" type="curve" smooth="yes"/>
			<point x="211" y="180" type="line"/>
			<point x="262" y="180" type="line"/>
			<point x="265" y="254" type="line" smooth="yes"/>
			<point x="267" y="294"/>
			<point x="275" y="321"/>
			<point x="307" y="342" type="curve" smooth="yes"/>
			<point x="387" y="395"/>
			<point x="423" y="451"/>
			<point x="423" y="516" type="curve"/>
			<point x="423" y="615"/>
			<point x="341" y="698"/>
			<point x="232" y="698" type="curve"/>
			<point x="152" y="698"/>
			<point x="84" y="660"/>
		</contour>
	</outline>
</glyph>
<glyph name="A" format="2">
	<advance width="590"/>
	<unicode hex="0041"/>
	<anchor x="295" y="690" name="top"/>
	<anchor x="295" y="0" name="bottom"/>
	<anchor x="505" y="0" name="ogonek"/>
	<outline>
		<contour>
			<point x="20" y="0" type="line"/>
			<point x="82" y="0" type="line"/>
			<point x="311" y="645" type="line"/>
			<point x="309" y="690" type="line"/>
			<point x="269" y="690" type="line"/>
		</contour>
		<contour>
			<point x="147" y="226" type="line"/>
			<point x="440" y="226" type="line"/>
			<point x="440" y="280" type="line"/>
			<point x="147" y="280" type="line"/>
		</contour>
		<contour>
			<point x="279" y="645" type="line"/>
			<point x="505" y="0" type="line"/>
			<point x="570" y="0" type="line"/>
			<point x="321" y="690" type="line"/>
			<point x="277" y="690" type="line"/>
		</contour>
	</outline>
</glyph>
<glyph name="C" format="1">
  <advance width="626"/>
  <unicode hex="0043"/>
  <outline>
    <contour>
      <point x="70" y="345" type="curve"/>
      <point x="70" y="112"/>
      <point x="201" y="-8"/>
      <point x="361" y="-8" type="curve"/>
      <point x="440" y="-8"/>
      <point x="517" y="25"/>
      <point x="571" y="91" type="curve"/>
      <point x="523" y="128" type="line"/>
      <point x="483" y="77"/>
      <point x="422" y="49"/>
      <point x="361" y="49" type="curve"/>
      <point x="234" y="49"/>
      <point x="134" y="148"/>
      <point x="134" y="345" type="curve"/>
      <point x="134" y="542"/>
      <point x="236" y="641"/>
      <point x="361" y="641" type="curve" smooth="yes"/>
      <point x="424" y="641"/>
      <point x="478" y="616"/>
      <point x="518" y="565" type="curve"/>
      <point x="566" y="602" type="line"/>
      <point x="512" y="668"/>
      <point x="442" y="698"/>
      <point x="361" y="698" type="curve" smooth="yes"/>
      <point x="203" y="698"/>
      <point x="70" y="578"/>
    </contour>
    <contour>
      <point x="351" y="690" type="move" name="top"/>
    </contour>
    <contour>
      <point x="351" y="0" type="move" name="bottom"/>
    </contour>
  </outline>
</glyph>
<glyph name="D" format="2">
	<advance width="686"/>
	<unicode hex="0044"/>
	<anchor x="289" y="690" name="top"/>
	<outline>
		<contour>
			<point x="110" y="0" type="line"/>
			<point x="172" y="0" type="line"/>
			<point x="172" y="690" type="line"/>
			<point x="110" y="690" type="line"/>
		</contour>
		<contour>
			<point x="140" y="0" type="line"/>
			<point x="304" y="0" type="line" smooth="yes"/>
			<point x="482" y="0"/>
			<point x="616" y="112"/>
			<point x="616" y="345" type="curve" smooth="yes"/>
			<point x="616" y="578"/>
			<point x="482" y="690"/>
			<point x="304" y="690" type="curve" smooth="yes"/>
			<point x="140" y="690" type="line"/>
			<point x="140" y="636" type="line"/>
			<point x="299" y="636" type="line" smooth="yes"/>
			<point x="447" y="636"/>
			<point x="552" y="542"/>
			<point x="552" y="345" type="curve" smooth="yes"/>
			<point x="552" y="148"/>
			<point x="447" y="54"/>
			<point x="299" y="54" type="curve" smooth="yes"/>
			<point x="140" y="54" type="line"/>
		</contour>
	</outline>
</glyph>
<glyph name="E" format="2">
	<advance width="596"/>
	<unicode hex="0045"/>
	<anchor x="311" y="690" name="top"/>
	<anchor x="311" y="0" name="bottom"/>
	<anchor x="471" y="0" name="ogonek"/>
	<outline>
		<contour>
			<point x="110" y="0" type="line"/>
			<point x="172" y="0" type="line"/>
			<point x="172" y="690" type="line"/>
			<point x="110" y="690" type="line"/>
		</contour>
		<contour>
			<point x="140" y="0" type="line"/>
			<point x="526" y="0" type="line"/>
			<point x="526" y="54" type="line"/>
			<point x="140" y="54" type="line"/>
		</contour>
		<contour>
			<point x="140" y="322" type="line"/>
			<point x="475" y="322" type="line"/>
			<point x="475" y="374" type="line"/>
			<point x="140" y="374" type="line"/>
		</contour>
		<contour>
			<point x="140" y="636" type="line"/>
			<point x="521" y="636" type="line"/>
			<point x="521" y="690" type="line"/>
			<point x="140" y="690" type="line"/>
		</contour>
	</outline>
</glyph>
<glyph name="F" format="2">
	<advance width="558"/>
	<unicode hex="0046"/>
	<outline>
		<contour>
			<point x="110" y="0" type="line"/>
			<point x="172" y="0" type="line"/>
			<point x="172" y="690" type="line"/>
			<point x="110" y="690" type="line"/>
		</contour>
		<contour>
			<point x="140" y="301" type="line"/>
			<point x="470" y="301" type="line"/>
			<point x="470" y="355" type="line"/>
			<point x="140" y="355" type="line"/>
		</contour>
		<contour>
			<point x="140" y="636" type="line"/>
			<point x="508" y="636" type="line"/>
			<point x="508" y="690" type="line"/>
			<point x="140" y="690" type="line"/>
		</contour>
	</outline>
</glyph>
<glyph name="H" format="2">
	<advance width="716"/>
	<unicode hex="0048"/>
	<anchor x="358" y="690" name="top"/>
	<outline>
		<contour>
			<point x="110" y="0" type="line"/>
			<point x="172" y="0" type="line"/>
			<point x="172" y="690" type="line"/>
			<point x="110" y="690" type="line"/>
		</contour>
		<contour>
			<point x="140" y="321" type="line"/>
			<point x="576" y="321" type="line"/>
			<point x="576" y="375" type="line"/>
			<point x="140" y="375" type="line"/>
		</contour>
		<contour>
			<point x="544" y="0" type="line"/>
			<point x="606" y="0" type="line"/>
			<point x="606" y="690" type="line"/>
			<point x="544" y="690" type="line"/>
		</contour>
	</outline>
</glyph>
<glyph name="J" format="2">
	<advance width="536"/>
	<unicode hex="004A"/>
	<anchor x="315" y="690" name="top"/>
	<outline>
		<contour>
			<point x="55" y="87" type="line"/>
			<point x="98" y="25"/>
			<point x="160" y="-8"/>
			<point x="229" y="-8" type="curve"/>
			<point x="344" y="-8"/>
			<point x="436" y="68"/>
			<point x="436" y="215" type="curve" smooth="yes"/>
			<point x="436" y="690" type="line"/>
			<point x="374" y="690" type="line"/>
			<point x="374" y="220" type="line" smooth="yes"/>
			<point x="374" y="106"/>
			<point x="310" y="49"/>
			<point x="229" y="49" type="curve"/>
			<point x="177" y="49"/>
			<point x="136" y="73"/>
			<point x="102" y="119" type="curve"/>
		</contour>
		<contour>
			<point x="194" y="640" type="line"/>
			<point x="410" y="640" type="line"/>
			<point x="410" y="690" type="line"/>
			<point x="194" y="690" type="line"/>
		</contour>
	</outline>
</glyph>
<glyph name="K" format="2">
	<advance width="615"/>
	<unicode hex="004B"/>
	<anchor x="340" y="0" name="bottom"/>
	<outline>
		<contour>
			<point x="110" y="0" type="line"/>
			<point x="172" y="0" type="line"/>
			<point x="172" y="690" type="line"/>
			<point x="110" y="690" type="line"/>
		</contour>
		<contour>
			<point x="166" y="216" type="line"/>
			<point x="287" y="357" type="line"/>
			<point x="294" y="365" type="line"/>
			<point x="573" y="690" type="line"/>
			<point x="498" y="690" type="line"/>
			<point x="166" y="299" type="line"/>
		</contour>
		<contour>
			<point x="262" y="348" type="line"/>
			<point x="512" y="0" type="line"/>
			<point x="590" y="0" type="line"/>
			<point x="302" y="392" type="line"/>
		</contour>
	</outline>
</glyph>
<glyph name="L" format="2">
	<advance width="542"/>
	<unicode hex="004C"/>
	<anchor x="141" y="690" name="top"/>
	<anchor x="300" y="0" name="bottom"/>
	<anchor x="352" y="680" name="caron.alt"/>
	<outline>
		<contour>
			<point x="110" y="0" type="line"/>
			<point x="172" y="0" type="line"/>
			<point x="172" y="690" type="line"/>
			<point x="110" y="690" type="line"/>
		</contour>
		<contour>
			<point x="140" y="0" type="line"/>
			<point x="492" y="0" type="line"/>
			<point x="492" y="54" type="line"/>
			<point x="140" y="54" type="line"/>
		</contour>
	</outline>
</glyph>
<glyph name="M" format="2">
	<advance width="830"/>
	<unicode hex="004D"/>
	<outline>
		<contour>
			<point x="110" y="0" type="line"/>
			<point x="172" y="0" type="line"/>
			<point x="172" y="690" type="line"/>
			<point x="110" y="690" type="line"/>
		</contour>
		<contour>
			<point x="144" y="690" type="line"/>
			<point x="390" y="175" type="line"/>
			<point x="417" y="175" type="line"/>
			<point x="417" y="254" type="line"/>
			<point x="213" y="690" type="line"/>
		</contour>
		<contour>
			<point x="413" y="175" type="line"/>
			<point x="440" y="175" type="line"/>
			<point x="686" y="690" type="line"/>
			<point x="617" y="690" type="line"/>
			<point x="413" y="254" type="line"/>
		</contour>
		<contour>
			<point x="658" y="0" type="line"/>
			<point x="720" y="0" type="line"/>
			<point x="720" y="690" type="line"/>
			<point x="658" y="690" type="line"/>
		</contour>
	</outline>
</glyph>
<glyph name="N" format="2">
	<advance width="726"/>
	<unicode hex="004E"/>
	<anchor x="377" y="690" name="top"/>
	<anchor x="350" y="0" name="bottom"/>
	<outline>
		<contour>
			<point x="110" y="0" type="line"/>
			<point x="172" y="0" type="line"/>
			<point x="172" y="690" type="line"/>
			<point x="110" y="690" type="line"/>
		</contour>
		<contour>
			<point x="128" y="690" type="line"/>
			<point x="531" y="0" type="line"/>
			<point x="598" y="0" type="line"/>
			<point x="195" y="690" type="line"/>
		</contour>
		<contour>
			<point x="554" y="0" type="line"/>
			<point x="616" y="0" type="line"/>
			<point x="616" y="690" type="line"/>
			<point x="554" y="690" type="line"/>
		</contour>
	</outline>
</glyph>
<glyph name="P" format="1">
  <advance width="616"/>
  <unicode hex="0050"/>
  <outline>
    <contour>
      <point x="110" y="0" type="line"/>
      <point x="172" y="0" type="line"/>
      <point x="172" y="690" type="line"/>
      <point x="110" y="690" type="line"/>
    </contour>
    <contour>
      <point x="140" y="250" type="line"/>
      <point x="319" y="250" type="line" smooth="yes"/>
      <point x="456" y="250"/>
      <point x="561" y="332"/>
      <point x="561" y="470" type="curve" smooth="yes"/>
      <point x="561" y="608"/>
      <point x="456" y="690"/>
      <point x="319" y="690" type="curve" smooth="yes"/>
      <point x="140" y="690" type="line"/>
      <point x="140" y="636" type="line"/>
      <point x="314" y="636" type="line" smooth="yes"/>
      <point x="423.9896373056995" y="636.0"/>
      <point x="497" y="577"/>
      <point x="497" y="470" type="curve" smooth="yes"/>
      <point x="497" y="363"/>
      <point x="423.9896373056995" y="304.0"/>
      <point x="314" y="304" type="curve" smooth="yes"/>
      <point x="140" y="304" type="line"/>
    </contour>
  </outline>
</glyph>
<glyph name="Q" format="2">
  <advance width="716"/>
  <unicode hex="0051"/>
  <outline>
    <contour>
      <point x="424" y="7" type="line"/>
      <point x="451" y="-97"/>
      <point x="527" y="-146"/>
      <point x="641" y="-150" type="curve"/>
      <point x="641" y="-87" type="line"/>
      <point x="559" y="-87"/>
      <point x="498" y="-58"/>
      <point x="474" y="29" type="curve"/>
    </contour>
    <contour>
      <point x="70" y="345" type="curve" smooth="yes"/>
      <point x="70" y="112"/>
      <point x="200" y="-8"/>
      <point x="358" y="-8" type="curve" smooth="yes"/>
      <point x="516" y="-8"/>
      <point x="646" y="112"/>
      <point x="646" y="345" type="curve" smooth="yes"/>
      <point x="646" y="578"/>
      <point x="516" y="698"/>
      <point x="358" y="698" type="curve" smooth="yes"/>
      <point x="200" y="698"/>
      <point x="70" y="578"/>
    </contour>
    <contour>
      <point x="134" y="345" type="curve" smooth="yes"/>
      <point x="134" y="542"/>
      <point x="233" y="641"/>
      <point x="358" y="641" type="curve" smooth="yes"/>
      <point x="483" y="641"/>
      <point x="582" y="542"/>
      <point x="582" y="345" type="curve" smooth="yes"/>
      <point x="582" y="148"/>
      <point x="483" y="49"/>
      <point x="358" y="49" type="curve" smooth="yes"/>
      <point x="233" y="49"/>
      <point x="134" y="148"/>
    </contour>
  </outline>
</glyph>
<glyph name="R" format="1">
  <advance width="626"/>
  <unicode hex="0052"/>
  <outline>
    <contour>
      <point x="110" y="0" type="line"/>
      <point x="172" y="0" type="line"/>
      <point x="172" y="690" type="line"/>
      <point x="110" y="690" type="line"/>
    </contour>
    <contour>
      <point x="140" y="276" type="line"/>
      <point x="304" y="276" type="line" smooth="yes"/>
      <point x="439" y="276"/>
      <point x="541" y="354"/>
      <point x="541" y="483" type="curve" smooth="yes"/>
      <point x="541" y="612"/>
      <point x="439" y="690"/>
      <point x="304" y="690" type="curve" smooth="yes"/>
      <point x="140" y="690" type="line"/>
      <point x="140" y="636" type="line"/>
      <point x="299" y="636" type="line" smooth="yes"/>
      <point x="407" y="636"/>
      <point x="477" y="581"/>
      <point x="477" y="483" type="curve" smooth="yes"/>
      <point x="477" y="385"/>
      <point x="407" y="330"/>
      <point x="299" y="330" type="curve" smooth="yes"/>
      <point x="140" y="330" type="line"/>
    </contour>
    <contour>
      <point x="313" y="290" type="line"/>
      <point x="498" y="0" type="line"/>
      <point x="571" y="0" type="line"/>
      <point x="380" y="290" type="line"/>
    </contour>
    <contour>
      <point x="289" y="690" type="move" name="top"/>
    </contour>
    <contour>
      <point x="310" y="0" type="move" name="bottom"/>
    </contour>
  </outline>
</glyph>
<glyph name="T" format="2">
	<advance width="564"/>
	<unicode hex="0054"/>
	<anchor x="282" y="690" name="top"/>
	<anchor x="282" y="0" name="bottom"/>
	<outline>
		<contour>
			<point x="35" y="636" type="line"/>
			<point x="529" y="636" type="line"/>
			<point x="529" y="690" type="line"/>
			<point x="35" y="690" type="line"/>
		</contour>
		<contour>
			<point x="251" y="0" type="line"/>
			<point x="313" y="0" type="line"/>
			<point x="313" y="690" type="line"/>
			<point x="251" y="690" type="line"/>
		</contour>
	</outline>
</glyph>
<glyph name="U" format="2">
	<advance width="692"/>
	<unicode hex="0055"/>
	<anchor x="346" y="690" name="top"/>
	<anchor x="346" y="0" name="bottom"/>
	<anchor x="400" y="0" name="ogonek"/>
	<outline>
		<contour>
			<point x="100" y="245" type="line" smooth="yes"/>
			<point x="100" y="78"/>
			<point x="207" y="-8"/>
			<point x="346" y="-8" type="curve" smooth="yes"/>
			<point x="485" y="-8"/>
			<point x="592" y="78"/>
			<point x="592" y="245" type="curve" smooth="yes"/>
			<point x="592" y="690" type="line"/>
			<point x="530" y="690" type="line"/>
			<point x="530" y="250" type="line" smooth="yes"/>
			<point x="530" y="116"/>
			<point x="451" y="49"/>
			<point x="346" y="49" type="curve" smooth="yes"/>
			<point x="241" y="49"/>
			<point x="162" y="116"/>
			<point x="162" y="250" type="curve" smooth="yes"/>
			<point x="162" y="690" type="line"/>
			<point x="100" y="690" type="line"/>
		</contour>
	</outline>
</glyph>
<glyph name="V" format="2">
	<advance width="582"/>
	<unicode hex="0056"/>
	<outline>
		<contour>
			<point x="20" y="690" type="line"/>
			<point x="265" y="0" type="line"/>
			<point x="309" y="0" type="line"/>
			<point x="307" y="45" type="line"/>
			<point x="85" y="690" type="line"/>
		</contour>
		<contour>
			<point x="275" y="45" type="line"/>
			<point x="277" y="0" type="line"/>
			<point x="317" y="0" type="line"/>
			<point x="562" y="690" type="line"/>
			<point x="500" y="690" type="line"/>
		</contour>
	</outline>
</glyph>
<glyph name="X" format="1">
  <advance width="615"/>
  <unicode hex="0058"/>
  <outline>
    <contour>
      <point x="45.0" y="0.0" type="line"/>
      <point x="115.0" y="0.0" type="line"/>
      <point x="314" y="312" type="line"/>
      <point x="333" y="338" type="line"/>
      <point x="560.0" y="690.0" type="line"/>
      <point x="490.0" y="690.0" type="line"/>
      <point x="301" y="392" type="line"/>
      <point x="282" y="367" type="line"/>
    </contour>
    <contour>
      <point x="55" y="690" type="line"/>
      <point x="289" y="325" type="line"/>
      <point x="497" y="0" type="line"/>
      <point x="570" y="0" type="line"/>
      <point x="327" y="380" type="line"/>
      <point x="128" y="690" type="line"/>
    </contour>
  </outline>
</glyph>
<glyph name="Y" format="2">
	<advance width="572"/>
	<unicode hex="0059"/>
	<anchor x="286" y="690" name="top"/>
	<outline>
		<contour>
			<point x="15" y="690" type="line"/>
			<point x="260" y="280" type="line"/>
			<point x="304" y="280" type="line"/>
			<point x="302" y="321" type="line"/>
			<point x="87" y="690" type="line"/>
		</contour>
		<contour>
			<point x="255" y="0" type="line"/>
			<point x="317" y="0" type="line"/>
			<point x="317" y="310" type="line"/>
			<point x="255" y="310" type="line"/>
		</contour>
		<contour>
			<point x="270" y="321" type="line"/>
			<point x="272" y="280" type="line"/>
			<point x="312" y="280" type="line"/>
			<point x="557" y="690" type="line"/>
			<point x="489" y="690" type="line"/>
		</contour>
	</outline>
</glyph>
<glyph name="Z" format="2">
	<advance width="597"/>
	<unicode hex="005A"/>
	<anchor x="298" y="690" name="top"/>
	<outline>
		<contour>
			<point x="65" y="42" type="line"/>
			<point x="111" y="0" type="line"/>
			<point x="524" y="648" type="line"/>
			<point x="478" y="690" type="line"/>
		</contour>
		<contour>
			<point x="65" y="0" type="line"/>
			<point x="532" y="0" type="line"/>
			<point x="532" y="54" type="line"/>
			<point x="80" y="54" type="line"/>
			<point x="65" y="42" type="line"/>
		</contour>
		<contour>
			<point x="73" y="636" type="line"/>
			<point x="507" y="636" type="line"/>
			<point x="524" y="648" type="line"/>
			<point x="524" y="690" type="line"/>
			<point x="73" y="690" type="line"/>
		</contour>
	</outline>
</glyph>
<glyph name="bracketleft" format="2">
	<advance width="295"/>
	<unicode hex="005B"/>
	<outline>
		<contour>
			<point x="110" y="-225" type="line"/>
			<point x="166" y="-225" type="line"/>
			<point x="166" y="760" type="line"/>
			<point x="110" y="760" type="line"/>
		</contour>
		<contour>
			<point x="136" y="-225" type="line"/>
			<point x="310" y="-225" type="line"/>
			<point x="310" y="-175" type="line"/>
			<point x="136" y="-175" type="line"/>
		</contour>
		<contour>
			<point x="136" y="710" type="line"/>
			<point x="310" y="710" type="line"/>
			<point x="310" y="760" type="line"/>
			<point x="136" y="760" type="line"/>
		</contour>
	</outline>
</glyph>
<glyph name="asciicircum" format="2">
  <advance width="600"/>
  <unicode hex="005E"/>
  <outline>
    <contour>
      <point x="72.0" y="290" type="line"/>
      <point x="133.0" y="290" type="line"/>
      <point x="313.0" y="654" type="line"/>
      <point x="312.0" y="690" type="line"/>
      <point x="274.0" y="690" type="line"/>
    </contour>
    <contour>
      <point x="280.0" y="690" type="line"/>
      <point x="284.0" y="654" type="line"/>
      <point x="465.0" y="290" type="line"/>
      <point x="528.0" y="290" type="line"/>
      <point x="326.0" y="690" type="line"/>
    </contour>
  </outline>
</glyph>
<glyph name="a" format="2">
  <advance width="514"/>
  <unicode hex="0061"/>
  <anchor x="249" y="510" name="top"/>
  <anchor x="249" y="0" name="bottom"/>
  <anchor x="380" y="0" name="ogonek"/>
  <outline>
    <contour>
      <point x="60" y="121" type="curve"/>
      <point x="60" y="49"/>
      <point x="115" y="-8"/>
      <point x="198" y="-8" type="curve"/>
      <point x="265" y="-8"/>
      <point x="340" y="30"/>
      <point x="379" y="88" type="curve"/>
      <point x="379" y="139" type="line"/>
      <point x="336" y="78"/>
      <point x="269" y="46"/>
      <point x="208" y="46" type="curve"/>
      <point x="150" y="46"/>
      <point x="119" y="81"/>
      <point x="119" y="128" type="curve"/>
      <point x="119" y="178"/>
      <point x="153" y="236"/>
      <point x="291" y="248" type="curve" smooth="yes"/>
      <point x="370" y="255" type="line"/>
      <point x="370" y="297" type="line"/>
      <point x="284" y="292" type="line" smooth="yes"/>
      <point x="119" y="282"/>
      <point x="60" y="207"/>
    </contour>
    <contour>
      <point x="74" y="472" type="curve"/>
      <point x="98" y="424" type="line"/>
      <point x="143" y="450"/>
      <point x="188" y="463"/>
      <point x="236" y="463" type="curve"/>
      <point x="313" y="463"/>
      <point x="364" y="423"/>
      <point x="364" y="324" type="curve"/>
      <point x="364" y="103" type="line"/>
      <point x="380" y="0" type="line"/>
      <point x="435" y="0" type="line"/>
      <point x="429" y="39" type="line" smooth="yes"/>
      <point x="425" y="68"/>
      <point x="424" y="89"/>
      <point x="424" y="122" type="curve"/>
      <point x="424" y="327" type="line" smooth="yes"/>
      <point x="424" y="454"/>
      <point x="346" y="518"/>
      <point x="240" y="518" type="curve"/>
      <point x="186" y="518"/>
      <point x="122" y="499"/>
    </contour>
  </outline>
</glyph>
<glyph name="c" format="2">
	<advance width="493"/>
	<unicode hex="0063"/>
	<anchor x="269" y="510" name="top"/>
	<anchor x="269" y="0" name="bottom"/>
	<outline>
		<contour>
			<point x="60" y="255" type="curve"/>
			<point x="60" y="82"/>
			<point x="157" y="-8"/>
			<point x="279" y="-8" type="curve"/>
			<point x="346" y="-8"/>
			<point x="404" y="24"/>
			<point x="443" y="77" type="curve"/>
			<point x="396" y="110" type="line"/>
			<point x="369" y="69"/>
			<point x="326" y="48"/>
			<point x="277" y="48" type="curve"/>
			<point x="187" y="48"/>
			<point x="121" y="112"/>
			<point x="121" y="255" type="curve"/>
			<point x="121" y="395"/>
			<point x="186" y="462"/>
			<point x="277" y="462" type="curve"/>
			<point x="325" y="462"/>
			<point x="367" y="443"/>
			<point x="395" y="402" type="curve"/>
			<point x="442" y="435" type="line"/>
			<point x="403" y="489"/>
			<point x="345" y="518"/>
			<point x="279" y="518" type="curve"/>
			<point x="157" y="518"/>
			<point x="60" y="425"/>
		</contour>
	</outline>
</glyph>
<glyph name="d" format="2">
	<advance width="561"/>
	<unicode hex="0064"/>
	<anchor x="561" y="720" name="caron.alt"/>
	<outline>
		<contour>
			<point x="60" y="250" type="curve" smooth="yes"/>
			<point x="60" y="75"/>
			<point x="145" y="-8"/>
			<point x="248" y="-8" type="curve" smooth="yes"/>
			<point x="313" y="-8"/>
			<point x="382" y="35"/>
			<point x="421" y="93" type="curve"/>
			<point x="421" y="144" type="line"/>
			<point x="378" y="83"/>
			<point x="317" y="47"/>
			<point x="256" y="47" type="curve" smooth="yes"/>
			<point x="185" y="47"/>
			<point x="121" y="105.82828"/>
			<point x="121" y="255" type="curve" smooth="yes"/>
			<point x="121" y="406.80543"/>
			<point x="183" y="466"/>
			<point x="268" y="466" type="curve" smooth="yes"/>
			<point x="346" y="466"/>
			<point x="406" y="413"/>
			<point x="406" y="310" type="curve"/>
			<point x="434" y="317" type="line"/>
			<point x="434" y="445"/>
			<point x="359" y="518"/>
			<point x="264" y="518" type="curve" smooth="yes"/>
			<point x="153" y="518"/>
			<point x="60" y="437"/>
		</contour>
		<contour>
			<point x="422" y="0" type="line"/>
			<point x="477" y="0" type="line"/>
			<point x="471" y="39" type="line" smooth="yes"/>
			<point x="467" y="68"/>
			<point x="466" y="89"/>
			<point x="466" y="122" type="curve" smooth="yes"/>
			<point x="466" y="731" type="line"/>
			<point x="406" y="717" type="line"/>
			<point x="406" y="103" type="line"/>
		</contour>
	</outline>
</glyph>
<glyph name="e" format="2">
	<advance width="536"/>
	<unicode hex="0065"/>
	<anchor x="275" y="510" name="top"/>
	<anchor x="275" y="0" name="bottom"/>
	<anchor x="294" y="0" name="ogonek"/>
	<outline>
		<contour>
			<point x="60" y="255" type="curve" smooth="yes"/>
			<point x="60" y="81"/>
			<point x="164" y="-8"/>
			<point x="288" y="-8" type="curve" smooth="yes"/>
			<point x="345" y="-8"/>
			<point x="400" y="13"/>
			<point x="448" y="55" type="curve"/>
			<point x="412" y="99" type="line"/>
			<point x="376" y="68"/>
			<point x="336" y="48"/>
			<point x="287" y="48" type="curve" smooth="yes"/>
			<point x="194" y="48"/>
			<point x="121" y="111"/>
			<point x="121" y="255" type="curve" smooth="yes"/>
			<point x="121" y="395"/>
			<point x="185" y="463"/>
			<point x="275" y="463" type="curve" smooth="yes"/>
			<point x="356" y="463"/>
			<point x="419" y="402"/>
			<point x="419" y="270" type="curve"/>
			<point x="432" y="294" type="line"/>
			<point x="104" y="294" type="line"/>
			<point x="104" y="244" type="line"/>
			<point x="474" y="244" type="line"/>
			<point x="475" y="254"/>
			<point x="476" y="267"/>
			<point x="476" y="280" type="curve" smooth="yes"/>
			<point x="476" y="431"/>
			<point x="387" y="518"/>
			<point x="275" y="518" type="curve" smooth="yes"/>
			<point x="154" y="518"/>
			<point x="60" y="425"/>
		</contour>
	</outline>
</glyph>
<glyph name="f" format="2">
	<advance width="339"/>
	<unicode hex="0066"/>
	<outline>
		<contour>
			<point x="30" y="460" type="line"/>
			<point x="330" y="460" type="line"/>
			<point x="330" y="510" type="line"/>
			<point x="30" y="510" type="line"/>
		</contour>
		<contour>
			<point x="123" y="0" type="line"/>
			<point x="183" y="0" type="line"/>
			<point x="183" y="572" type="line" smooth="yes"/>
			<point x="183" y="645"/>
			<point x="214" y="674"/>
			<point x="267" y="674" type="curve"/>
			<point x="291" y="674"/>
			<point x="314" y="668"/>
			<point x="342" y="654" type="curve"/>
			<point x="356" y="704" type="line"/>
			<point x="332" y="718"/>
			<point x="295" y="728"/>
			<point x="262" y="728" type="curve"/>
			<point x="179" y="728"/>
			<point x="123" y="675"/>
			<point x="123" y="575" type="curve" smooth="yes"/>
		</contour>
	</outline>
</glyph>
<glyph name="h" format="2">
	<advance width="575"/>
	<unicode hex="0068"/>
	<anchor x="125" y="720" name="top"/>
	<outline>
		<contour>
			<point x="95" y="0" type="line"/>
			<point x="155" y="0" type="line"/>
			<point x="155" y="731" type="line"/>
			<point x="95" y="717" type="line"/>
		</contour>
		<contour>
			<point x="140" y="368" type="line"/>
			<point x="184" y="427"/>
			<point x="247" y="463"/>
			<point x="310" y="463" type="curve"/>
			<point x="373" y="463"/>
			<point x="425" y="423"/>
			<point x="425" y="320" type="curve" smooth="yes"/>
			<point x="425" y="0" type="line"/>
			<point x="485" y="0" type="line"/>
			<point x="485" y="325" type="line" smooth="yes"/>
			<point x="485" y="453"/>
			<point x="409" y="518"/>
			<point x="318" y="518" type="curve"/>
			<point x="251" y="518"/>
			<point x="180" y="475"/>
			<point x="140" y="417" type="curve"/>
		</contour>
	</outline>
</glyph>
<glyph name="i" format="2">
	<advance width="250"/>
	<unicode hex="0069"/>
	<anchor x="125" y="0" name="bottom"/>
	<anchor x="95" y="0" name="ogonek"/>
	<outline>
		<contour>
			<point x="95" y="0" type="line"/>
			<point x="155" y="0" type="line"/>
			<point x="155" y="510" type="line"/>
			<point x="95" y="510" type="line"/>
		</contour>
		<contour>
			<point x="82" y="683" type="curve" smooth="yes"/>
			<point x="82" y="659"/>
			<point x="101" y="639"/>
			<point x="125" y="639" type="curve" smooth="yes"/>
			<point x="150" y="639"/>
			<point x="168" y="659"/>
			<point x="168" y="683" type="curve" smooth="yes"/>
			<point x="168" y="708"/>
			<point x="150" y="728"/>
			<point x="125" y="728" type="curve" smooth="yes"/>
			<point x="101" y="728"/>
			<point x="82" y="708"/>
		</contour>
	</outline>
</glyph>
<glyph name="k" format="2">
  <advance width="498"/>
  <unicode hex="006B"/>
  <anchor x="280" y="0" name="bottom"/>
  <outline>
    <contour>
      <point x="95" y="0" type="line"/>
      <point x="155" y="0" type="line"/>
      <point x="155" y="731" type="line"/>
      <point x="95" y="717" type="line"/>
    </contour>
    <contour>
      <point x="149" y="186" type="line"/>
      <point x="466" y="510" type="line"/>
      <point x="391" y="510" type="line"/>
      <point x="149" y="259" type="line"/>
    </contour>
    <contour>
      <point x="220" y="279" type="line"/>
      <point x="411" y="0" type="line"/>
      <point x="483" y="0" type="line"/>
      <point x="260" y="318" type="line"/>
    </contour>
  </outline>
</glyph>
<glyph name="l" format="2">
	<advance width="250"/>
	<unicode hex="006C"/>
	<anchor x="125" y="720" name="top"/>
	<anchor x="125" y="0" name="bottom"/>
	<anchor x="250" y="720" name="caron.alt"/>
	<outline>
		<contour>
			<point x="95" y="0" type="line"/>
			<point x="155" y="0" type="line"/>
			<point x="155" y="731" type="line"/>
			<point x="95" y="717" type="line"/>
		</contour>
	</outline>
</glyph>
<glyph name="n" format="2">
	<advance width="575"/>
	<unicode hex="006E"/>
	<anchor x="300" y="510" name="top"/>
	<anchor x="290" y="0" name="bottom"/>
	<outline>
		<contour>
			<point x="84" y="510" type="line"/>
			<point x="90" y="471" type="line" smooth="yes"/>
			<point x="94" y="442"/>
			<point x="95" y="421"/>
			<point x="95" y="388" type="curve" smooth="yes"/>
			<point x="95" y="0" type="line"/>
			<point x="155" y="0" type="line"/>
			<point x="155" y="407" type="line"/>
			<point x="139" y="510" type="line"/>
		</contour>
		<contour>
			<point x="140" y="366" type="line"/>
			<point x="184" y="427"/>
			<point x="247" y="463"/>
			<point x="310" y="463" type="curve"/>
			<point x="373" y="463"/>
			<point x="425" y="423"/>
			<point x="425" y="320" type="curve" smooth="yes"/>
			<point x="425" y="0" type="line"/>
			<point x="485" y="0" type="line"/>
			<point x="485" y="325" type="line" smooth="yes"/>
			<point x="485" y="453"/>
			<point x="409" y="518"/>
			<point x="318" y="518" type="curve"/>
			<point x="251" y="518"/>
			<point x="180" y="475"/>
			<point x="140" y="417" type="curve"/>
		</contour>
	</outline>
</glyph>
<glyph name="p" format="2">
  <advance width="561"/>
  <unicode hex="0070"/>
  <outline>
    <contour>
      <point x="84" y="510" type="line"/>
      <point x="90" y="471" type="line" smooth="yes"/>
      <point x="94" y="442"/>
      <point x="95" y="421"/>
      <point x="95" y="388" type="curve" smooth="yes"/>
      <point x="95" y="-196" type="line"/>
      <point x="155" y="-182" type="line"/>
      <point x="155" y="407" type="line"/>
      <point x="139" y="510" type="line"/>
    </contour>
    <contour>
      <point x="127" y="193" type="line"/>
      <point x="127" y="65"/>
      <point x="202" y="-8"/>
      <point x="297" y="-8" type="curve" smooth="yes"/>
      <point x="408.0" y="-8.0"/>
      <point x="501" y="73"/>
      <point x="501" y="260" type="curve" smooth="yes"/>
      <point x="501" y="435"/>
      <point x="416" y="518"/>
      <point x="313" y="518" type="curve" smooth="yes"/>
      <point x="248" y="518"/>
      <point x="178.87640449438203" y="475.0"/>
      <point x="140" y="417" type="curve"/>
      <point x="140" y="366" type="line"/>
      <point x="182.7058823529412" y="427.0"/>
      <point x="243.85294117647058" y="463.0"/>
      <point x="305" y="463" type="curve" smooth="yes"/>
      <point x="375.72" y="463.0"/>
      <point x="440.0" y="404.17171717171715"/>
      <point x="440" y="255" type="curve" smooth="yes"/>
      <point x="440.0" y="103.1945701357466"/>
      <point x="378.0" y="44.0"/>
      <point x="293" y="44" type="curve" smooth="yes"/>
      <point x="215" y="44"/>
      <point x="155.0" y="97.01923076923076"/>
      <point x="155" y="200" type="curve"/>
    </contour>
  </outline>
</glyph>
<glyph name="r" format="2">
	<advance width="341"/>
	<unicode hex="0072"/>
	<anchor x="185" y="510" name="top"/>
	<anchor x="125" y="0" name="bottom"/>
	<outline>
		<contour>
			<point x="84" y="510" type="line"/>
			<point x="90" y="471" type="line" smooth="yes"/>
			<point x="94" y="442"/>
			<point x="95" y="421"/>
			<point x="95" y="388" type="curve" smooth="yes"/>
			<point x="95" y="0" type="line"/>
			<point x="155" y="0" type="line"/>
			<point x="155" y="392" type="line"/>
			<point x="139" y="510" type="line"/>
		</contour>
		<contour>
			<point x="140" y="351" type="line"/>
			<point x="182" y="422"/>
			<point x="245" y="456"/>
			<point x="311" y="456" type="curve"/>
			<point x="311" y="518" type="line"/>
			<point x="248" y="518"/>
			<point x="180" y="477"/>
			<point x="140" y="406" type="curve"/>
		</contour>
	</outline>
</glyph>
<glyph name="s" format="2">
	<advance width="481"/>
	<unicode hex="0073"/>
	<anchor x="243" y="0" name="bottom"/>
	<anchor x="241" y="510" name="top"/>
	<outline>
		<contour>
			<point x="55" y="68" type="line"/>
			<point x="101" y="21"/>
			<point x="170" y="-8"/>
			<point x="243" y="-8" type="curve"/>
			<point x="354" y="-8"/>
			<point x="421" y="53"/>
			<point x="421" y="130" type="curve"/>
			<point x="421" y="199"/>
			<point x="374" y="251"/>
			<point x="258" y="288" type="curve" smooth="yes"/>
			<point x="155" y="321"/>
			<point x="131" y="350"/>
			<point x="131" y="389" type="curve"/>
			<point x="131" y="428"/>
			<point x="173" y="466"/>
			<point x="241" y="466" type="curve"/>
			<point x="289" y="466"/>
			<point x="334" y="448"/>
			<point x="364" y="414" type="curve"/>
			<point x="405" y="452" type="line"/>
			<point x="360" y="496"/>
			<point x="307" y="518"/>
			<point x="241" y="518" type="curve"/>
			<point x="143" y="518"/>
			<point x="72" y="457"/>
			<point x="72" y="384" type="curve"/>
			<point x="72" y="327"/>
			<point x="111" y="271"/>
			<point x="230" y="235" type="curve" smooth="yes"/>
			<point x="329" y="205"/>
			<point x="360" y="173"/>
			<point x="360" y="125" type="curve"/>
			<point x="360" y="85"/>
			<point x="323" y="47"/>
			<point x="247" y="47" type="curve"/>
			<point x="191" y="47"/>
			<point x="131" y="69"/>
			<point x="97" y="106" type="curve"/>
		</contour>
	</outline>
</glyph>
<glyph name="t" format="1">
  <advance width="377"/>
  <unicode hex="0074"/>
  <outline>
    <contour>
      <point x="30" y="460" type="line"/>
      <point x="332" y="460" type="line"/>
      <point x="332" y="510" type="line"/>
      <point x="30" y="510" type="line"/>
    </contour>
    <contour>
      <point x="123" y="135" type="line" smooth="yes"/>
      <point x="123" y="44"/>
      <point x="175" y="-8"/>
      <point x="254" y="-8" type="curve"/>
      <point x="283" y="-8"/>
      <point x="317" y="0"/>
      <point x="342" y="13" type="curve"/>
      <point x="329" y="64" type="line"/>
      <point x="304" y="52"/>
      <point x="280" y="47"/>
      <point x="260" y="47" type="curve"/>
      <point x="214" y="47"/>
      <point x="183" y="73"/>
      <point x="183" y="138" type="curve" smooth="yes"/>
      <point x="183" y="654" type="line"/>
      <point x="123" y="640" type="line"/>
    </contour>
    <contour>
      <point x="220" y="0" type="move" name="bottom"/>
    </contour>
    <contour>
      <point x="377" y="720" type="move" name="caron.alt"/>
    </contour>
  </outline>
</glyph>
<glyph name="u" format="2">
	<advance width="569"/>
	<unicode hex="0075"/>
	<anchor x="281" y="510" name="top"/>
	<anchor x="281" y="0" name="bottom"/>
	<anchor x="430" y="0" name="ogonek"/>
	<outline>
		<contour>
			<point x="90" y="185" type="line" smooth="yes"/>
			<point x="90" y="57"/>
			<point x="163" y="-8"/>
			<point x="252" y="-8" type="curve" smooth="yes"/>
			<point x="321" y="-8"/>
			<point x="389" y="35"/>
			<point x="429" y="93" type="curve"/>
			<point x="429" y="144" type="line"/>
			<point x="385" y="83"/>
			<point x="325" y="47"/>
			<point x="260" y="47" type="curve" smooth="yes"/>
			<point x="199" y="47"/>
			<point x="150" y="87"/>
			<point x="150" y="190" type="curve" smooth="yes"/>
			<point x="150" y="510" type="line"/>
			<point x="90" y="510" type="line"/>
		</contour>
		<contour>
			<point x="430" y="0" type="line"/>
			<point x="485" y="0" type="line"/>
			<point x="479" y="39" type="line" smooth="yes"/>
			<point x="475" y="68"/>
			<point x="474" y="89"/>
			<point x="474" y="122" type="curve" smooth="yes"/>
			<point x="474" y="510" type="line"/>
			<point x="414" y="510" type="line"/>
			<point x="414" y="103" type="line"/>
		</contour>
	</outline>
</glyph>
<glyph name="v" format="2">
	<advance width="466"/>
	<unicode hex="0076"/>
	<outline>
		<contour>
			<point x="15" y="510" type="line"/>
			<point x="207" y="0" type="line"/>
			<point x="253" y="0" type="line"/>
			<point x="251" y="38" type="line"/>
			<point x="80" y="510" type="line"/>
		</contour>
		<contour>
			<point x="219" y="38" type="line"/>
			<point x="221" y="0" type="line"/>
			<point x="259" y="0" type="line"/>
			<point x="451" y="510" type="line"/>
			<point x="389" y="510" type="line"/>
		</contour>
	</outline>
</glyph>
<glyph name="y" format="2">
  <advance width="466"/>
  <unicode hex="0079"/>
  <anchor x="236" y="510" name="top"/>
  <outline>
    <contour>
      <point x="15" y="510" type="line"/>
      <point x="207" y="0" type="line"/>
      <point x="253" y="0" type="line"/>
      <point x="251" y="38" type="line"/>
      <point x="80" y="510" type="line"/>
    </contour>
    <contour>
      <point x="30" y="-178" type="line"/>
      <point x="49" y="-187"/>
      <point x="74" y="-193"/>
      <point x="99" y="-193" type="curve"/>
      <point x="154" y="-193"/>
      <point x="195" y="-168"/>
      <point x="230" y="-76" type="curve" smooth="yes"/>
      <point x="451" y="510" type="line"/>
      <point x="389" y="510" type="line"/>
      <point x="219" y="38" type="line"/>
      <point x="178" y="-63" type="line" smooth="yes"/>
      <point x="152" y="-126"/>
      <point x="131" y="-140"/>
      <point x="93" y="-140" type="curve"/>
      <point x="77" y="-140"/>
      <point x="60" y="-137"/>
      <point x="43" y="-129" type="curve"/>
    </contour>
  </outline>
</glyph>
<glyph name="z" format="2">
	<advance width="473"/>
	<unicode hex="007A"/>
	<anchor x="236" y="510" name="top"/>
	<outline>
		<contour>
			<point x="55" y="40" type="line"/>
			<point x="99" y="0" type="line"/>
			<point x="410" y="470" type="line"/>
			<point x="366" y="510" type="line"/>
		</contour>
		<contour>
			<point x="55" y="0" type="line"/>
			<point x="418" y="0" type="line"/>
			<point x="418" y="50" type="line"/>
			<point x="70" y="50" type="line"/>
			<point x="55" y="40" type="line"/>
		</contour>
		<contour>
			<point x="63" y="460" type="line"/>
			<point x="393" y="460" type="line"/>
			<point x="410" y="470" type="line"/>
			<point x="410" y="510" type="line"/>
			<point x="63" y="510" type="line"/>
		</contour>
	</outline>
</glyph>
<glyph name="braceleft" format="2">
	<advance width="358"/>
	<unicode hex="007B"/>
	<outline>
		<contour>
			<point x="80" y="251" type="line"/>
			<point x="176" y="227"/>
			<point x="217" y="183"/>
			<point x="217" y="137" type="curve" smooth="yes"/>
			<point x="217" y="62"/>
			<point x="134" y="13"/>
			<point x="134" y="-81" type="curve" smooth="yes"/>
			<point x="134" y="-161"/>
			<point x="188" y="-216"/>
			<point x="300" y="-241" type="curve"/>
			<point x="313" y="-195" type="line"/>
			<point x="213" y="-166"/>
			<point x="190" y="-127"/>
			<point x="190" y="-82" type="curve" smooth="yes"/>
			<point x="190" y="-8"/>
			<point x="268" y="49"/>
			<point x="268" y="135" type="curve"/>
			<point x="268" y="192"/>
			<point x="236" y="240"/>
			<point x="152" y="268" type="curve"/>
			<point x="236" y="295"/>
			<point x="268" y="344"/>
			<point x="268" y="401" type="curve"/>
			<point x="268" y="487"/>
			<point x="190" y="543"/>
			<point x="190" y="617" type="curve" smooth="yes"/>
			<point x="190" y="662"/>
			<point x="213" y="701"/>
			<point x="313" y="730" type="curve"/>
			<point x="300" y="776" type="line"/>
			<point x="187" y="750"/>
			<point x="134" y="696"/>
			<point x="134" y="616" type="curve" smooth="yes"/>
			<point x="134" y="522"/>
			<point x="217" y="474"/>
			<point x="217" y="399" type="curve" smooth="yes"/>
			<point x="217" y="353"/>
			<point x="176" y="309"/>
			<point x="80" y="285" type="curve"/>
		</contour>
	</outline>
</glyph>
<glyph name="bar" format="2">
  <advance width="276"/>
  <unicode hex="007C"/>
  <outline>
    <contour>
      <point x="110" y="-215" type="line"/>
      <point x="166" y="-215" type="line"/>
      <point x="166" y="720" type="line"/>
      <point x="110" y="720" type="line"/>
    </contour>
  </outline>
</glyph>
<glyph name="asciitilde" format="2">
	<advance width="600"/>
	<unicode hex="007E"/>
	<outline>
		<contour>
			<point x="109" y="306" type="curve"/>
			<point x="153" y="306" type="line"/>
			<point x="164" y="381"/>
			<point x="189" y="409"/>
			<point x="216" y="409" type="curve"/>
			<point x="270" y="409"/>
			<point x="301" y="301"/>
			<point x="384" y="301" type="curve"/>
			<point x="437" y="301"/>
			<point x="482" y="355"/>
			<point x="491" y="451" type="curve"/>
			<point x="447" y="451" type="line"/>
			<point x="436" y="376"/>
			<point x="411" y="348"/>
			<point x="385" y="348" type="curve"/>
			<point x="328" y="348"/>
			<point x="297" y="456"/>
			<point x="216" y="456" type="curve"/>
			<point x="162" y="456"/>
			<point x="118" y="401"/>
		</contour>
	</outline>
</glyph>
<glyph name="sterling" format="2">
  <advance width="600"/>
  <unicode hex="00A3"/>
  <outline>
    <contour>
      <point x="70.0" y="0" type="line"/>
      <point x="530.0" y="0" type="line"/>
      <point x="530.0" y="56" type="line"/>
      <point x="70.0" y="56" type="line"/>
    </contour>
    <contour>
      <point x="70.0" y="10" type="line"/>
      <point x="190.0" y="60"/>
      <point x="245.0" y="160"/>
      <point x="245.0" y="260" type="curve" smooth="yes"/>
      <point x="245.0" y="340"/>
      <point x="207.0" y="400"/>
      <point x="207.0" y="470" type="curve" smooth="yes"/>
      <point x="207.0" y="584"/>
      <point x="271.0" y="641"/>
      <point x="352.0" y="641" type="curve" smooth="yes"/>
      <point x="404.0" y="641"/>
      <point x="445.0" y="617"/>
      <point x="479.0" y="571" type="curve"/>
      <point x="526.0" y="603" type="line"/>
      <point x="483.0" y="665"/>
      <point x="421.0" y="698"/>
      <point x="352.0" y="698" type="curve" smooth="yes"/>
      <point x="237.0" y="698"/>
      <point x="145.0" y="622"/>
      <point x="145.0" y="475" type="curve" smooth="yes"/>
      <point x="145.0" y="400"/>
      <point x="185.0" y="340"/>
      <point x="185.0" y="260" type="curve" smooth="yes"/>
      <point x="185.0" y="204"/>
      <point x="160.0" y="110"/>
      <point x="70.0" y="60" type="curve"/>
    </contour>
    <contour>
      <point x="70.0" y="306" type="line"/>
      <point x="430.0" y="306" type="line"/>
      <point x="430.0" y="360" type="line"/>
      <point x="70.0" y="360" type="line"/>
    </contour>
  </outline>
</glyph>
<glyph name="yen" format="2">
	<advance width="600"/>
	<unicode hex="00A5"/>
	<outline>
		<contour>
			<point x="29" y="690" type="line"/>
			<point x="274" y="280" type="line"/>
			<point x="318" y="280" type="line"/>
			<point x="316" y="321" type="line"/>
			<point x="101" y="690" type="line"/>
		</contour>
		<contour>
			<point x="87" y="144" type="line"/>
			<point x="513" y="144" type="line"/>
			<point x="513" y="198" type="line"/>
			<point x="87" y="198" type="line"/>
		</contour>
		<contour>
			<point x="87" y="288" type="line"/>
			<point x="513" y="288" type="line"/>
			<point x="513" y="342" type="line"/>
			<point x="87" y="342" type="line"/>
		</contour>
		<contour>
			<point x="269" y="0" type="line"/>
			<point x="331" y="0" type="line"/>
			<point x="331" y="310" type="line"/>
			<point x="269" y="310" type="line"/>
		</contour>
		<contour>
			<point x="284" y="321" type="line"/>
			<point x="286" y="280" type="line"/>
			<point x="326" y="280" type="line"/>
			<point x="571" y="690" type="line"/>
			<point x="503" y="690" type="line"/>
		</contour>
	</outline>
</glyph>
<glyph name="brokenbar" format="1">
  <advance width="276"/>
  <unicode hex="00A6"/>
  <outline>
    <contour>
      <point x="110" y="-215" type="line"/>
      <point x="166" y="-215" type="line"/>
      <point x="166" y="150" type="line"/>
      <point x="110" y="150" type="line"/>
    </contour>
    <contour>
      <point x="110" y="355" type="line"/>
      <point x="166" y="355" type="line"/>
      <point x="166.0" y="720.0" type="line"/>
      <point x="110.0" y="720.0" type="line"/>
    </contour>
  </outline>
</glyph>
<glyph name="section" format="2">
  <advance width="620"/>
  <unicode hex="00A7"/>
  <outline>
    <contour>
      <point x="79.0" y="-117" type="line"/>
      <point x="130.0" y="-165"/>
      <point x="194.0" y="-193"/>
      <point x="281.0" y="-193" type="curve" smooth="yes"/>
      <point x="413.0" y="-193"/>
      <point x="499.0" y="-116"/>
      <point x="499.0" y="-25" type="curve" smooth="yes"/>
      <point x="499.0" y="53"/>
      <point x="447.0" y="108"/>
      <point x="305.0" y="154" type="curve" smooth="yes"/>
      <point x="154.0" y="203"/>
      <point x="116.0" y="246"/>
      <point x="116.0" y="303" type="curve" smooth="yes"/>
      <point x="116.0" y="356"/>
      <point x="158.0" y="400"/>
      <point x="238.0" y="414" type="curve"/>
      <point x="174.0" y="453" type="line"/>
      <point x="99.0" y="425"/>
      <point x="55.0" y="369"/>
      <point x="55.0" y="298" type="curve" smooth="yes"/>
      <point x="55.0" y="213"/>
      <point x="121.0" y="149"/>
      <point x="281.0" y="98" type="curve" smooth="yes"/>
      <point x="405.0" y="58"/>
      <point x="440.0" y="24"/>
      <point x="440.0" y="-28" type="curve" smooth="yes"/>
      <point x="440.0" y="-89"/>
      <point x="380.0" y="-139"/>
      <point x="281.0" y="-139" type="curve" smooth="yes"/>
      <point x="208.0" y="-139"/>
      <point x="157.0" y="-111"/>
      <point x="117.0" y="-71" type="curve"/>
    </contour>
    <contour>
      <point x="121.0" y="530" type="curve" smooth="yes"/>
      <point x="121.0" y="452"/>
      <point x="173.0" y="397"/>
      <point x="315.0" y="351" type="curve" smooth="yes"/>
      <point x="466.0" y="302"/>
      <point x="504.0" y="259"/>
      <point x="504.0" y="202" type="curve" smooth="yes"/>
      <point x="504.0" y="149"/>
      <point x="462.0" y="105"/>
      <point x="382.0" y="91" type="curve"/>
      <point x="446.0" y="52" type="line"/>
      <point x="521.0" y="80"/>
      <point x="565.0" y="136"/>
      <point x="565.0" y="207" type="curve" smooth="yes"/>
      <point x="565.0" y="292"/>
      <point x="499.0" y="356"/>
      <point x="339.0" y="407" type="curve" smooth="yes"/>
      <point x="215.0" y="447"/>
      <point x="180.0" y="481"/>
      <point x="180.0" y="533" type="curve" smooth="yes"/>
      <point x="180.0" y="594"/>
      <point x="240.0" y="644"/>
      <point x="339.0" y="644" type="curve" smooth="yes"/>
      <point x="412.0" y="644"/>
      <point x="463.0" y="616"/>
      <point x="503.0" y="576" type="curve"/>
      <point x="541.0" y="622" type="line"/>
      <point x="490.0" y="670"/>
      <point x="426.0" y="698"/>
      <point x="339.0" y="698" type="curve" smooth="yes"/>
      <point x="207.0" y="698"/>
      <point x="121.0" y="621"/>
    </contour>
  </outline>
</glyph>
<glyph name="dieresis" format="1">
  <advance width="600"/>
  <unicode hex="00A8"/>
  <outline>
    <contour>
      <point x="163" y="685" type="curve" smooth="yes"/>
      <point x="163" y="661"/>
      <point x="182" y="643"/>
      <point x="205" y="643" type="curve" smooth="yes"/>
      <point x="229" y="643"/>
      <point x="247" y="661"/>
      <point x="247" y="685" type="curve" smooth="yes"/>
      <point x="247" y="710"/>
      <point x="229" y="728"/>
      <point x="205" y="728" type="curve" smooth="yes"/>
      <point x="182" y="728"/>
      <point x="163" y="710"/>
    </contour>
    <contour>
      <point x="353" y="685" type="curve" smooth="yes"/>
      <point x="353" y="661"/>
      <point x="372" y="643"/>
      <point x="395" y="643" type="curve" smooth="yes"/>
      <point x="419" y="643"/>
      <point x="437" y="661"/>
      <point x="437" y="685" type="curve" smooth="yes"/>
      <point x="437" y="710"/>
      <point x="419" y="728"/>
      <point x="395" y="728" type="curve" smooth="yes"/>
      <point x="372" y="728"/>
      <point x="353" y="710"/>
    </contour>
    <contour>
      <point x="300" y="510" type="move" name="_top"/>
    </contour>
  </outline>
</glyph>
<glyph name="copyright" format="1">
  <advance width="810"/>
  <unicode hex="00A9"/>
  <outline>
    <contour>
      <point x="405" y="-8" type="curve" smooth="yes"/>
      <point x="605" y="-8"/>
      <point x="760" y="145"/>
      <point x="760" y="345" type="curve" smooth="yes"/>
      <point x="760" y="545"/>
      <point x="605" y="698"/>
      <point x="405" y="698" type="curve" smooth="yes"/>
      <point x="205" y="698"/>
      <point x="50" y="545"/>
      <point x="50" y="345" type="curve" smooth="yes"/>
      <point x="50" y="145"/>
      <point x="205" y="-8"/>
    </contour>
    <contour>
      <point x="405" y="44" type="curve" smooth="yes"/>
      <point x="236" y="44"/>
      <point x="106" y="176"/>
      <point x="106" y="345" type="curve" smooth="yes"/>
      <point x="106" y="514"/>
      <point x="236" y="646"/>
      <point x="405" y="646" type="curve" smooth="yes"/>
      <point x="574" y="646"/>
      <point x="704" y="514"/>
      <point x="704" y="345" type="curve" smooth="yes"/>
      <point x="704" y="176"/>
      <point x="574" y="44"/>
    </contour>
    <contour>
      <point x="216" y="345" type="curve" smooth="yes"/>
      <point x="216" y="210"/>
      <point x="302" y="135"/>
      <point x="405" y="135" type="curve" smooth="yes"/>
      <point x="457" y="135"/>
      <point x="501" y="155"/>
      <point x="537" y="191" type="curve"/>
      <point x="500" y="232" type="line"/>
      <point x="474" y="204"/>
      <point x="444" y="189"/>
      <point x="406" y="189" type="curve" smooth="yes"/>
      <point x="331" y="189"/>
      <point x="274" y="244"/>
      <point x="274" y="345" type="curve" smooth="yes"/>
      <point x="274" y="447"/>
      <point x="331" y="501"/>
      <point x="406" y="501" type="curve" smooth="yes"/>
      <point x="439" y="501"/>
      <point x="467" y="488"/>
      <point x="494" y="460" type="curve"/>
      <point x="532" y="500" type="line"/>
      <point x="496" y="535"/>
      <point x="453" y="555"/>
      <point x="405" y="555" type="curve" smooth="yes"/>
      <point x="302" y="555"/>
      <point x="216" y="480"/>
    </contour>
  </outline>
</glyph>
<glyph name="guillemetleft" format="2">
  <advance width="482"/>
  <unicode hex="00AB"/>
  <outline>
    <contour>
      <point x="40" y="251" type="line"/>
      <point x="178" y="78" type="line"/>
      <point x="247" y="78" type="line"/>
      <point x="89" y="272" type="line"/>
      <point x="40" y="272" type="line"/>
    </contour>
    <contour>
      <point x="40" y="259" type="line"/>
      <point x="89" y="259" type="line"/>
      <point x="247" y="453" type="line"/>
      <point x="178" y="453" type="line"/>
      <point x="40" y="280" type="line"/>
    </contour>
    <contour>
      <point x="255" y="251" type="line"/>
      <point x="393" y="78" type="line"/>
      <point x="462" y="78" type="line"/>
      <point x="304" y="272" type="line"/>
      <point x="255" y="272" type="line"/>
    </contour>
    <contour>
      <point x="255" y="259" type="line"/>
      <point x="304" y="259" type="line"/>
      <point x="462" y="453" type="line"/>
      <point x="393" y="453" type="line"/>
      <point x="255" y="280" type="line"/>
    </contour>
  </outline>
</glyph>
<glyph name="logicalnot" format="2">
  <advance width="600"/>
  <unicode hex="00AC"/>
  <outline>
    <contour>
      <point x="79.0" y="263" type="line"/>
      <point x="521.0" y="263" type="line"/>
      <point x="521.0" y="317" type="line"/>
      <point x="79.0" y="317" type="line"/>
    </contour>
    <contour>
      <point x="465.0" y="70" type="line"/>
      <point x="521.0" y="70" type="line"/>
      <point x="521.0" y="317" type="line"/>
      <point x="465.0" y="317" type="line"/>
    </contour>
  </outline>
</glyph>
<glyph name="macron" format="2">
  <advance width="600"/>
  <unicode hex="00AF"/>
  <anchor x="300.0" y="510.0" name="_top"/>
  <outline>
    <contour>
      <point x="164" y="640" type="line"/>
      <point x="436" y="640" type="line"/>
      <point x="436" y="690" type="line"/>
      <point x="164" y="690" type="line"/>
    </contour>
  </outline>
</glyph>
<glyph name="degree" format="1">
  <advance width="372"/>
  <unicode hex="00B0"/>
  <outline>
    <contour>
      <point x="50" y="562" type="curve" smooth="yes"/>
      <point x="50" y="484"/>
      <point x="108" y="426"/>
      <point x="186" y="426" type="curve" smooth="yes"/>
      <point x="264" y="426"/>
      <point x="322" y="484"/>
      <point x="322" y="562" type="curve" smooth="yes"/>
      <point x="322" y="640"/>
      <point x="264" y="698"/>
      <point x="186" y="698" type="curve" smooth="yes"/>
      <point x="108" y="698"/>
      <point x="50" y="640"/>
    </contour>
    <contour>
      <point x="100" y="562" type="curve" smooth="yes"/>
      <point x="100" y="616"/>
      <point x="135" y="652"/>
      <point x="186" y="652" type="curve" smooth="yes"/>
      <point x="237" y="652"/>
      <point x="272" y="616"/>
      <point x="272" y="562" type="curve" smooth="yes"/>
      <point x="272" y="508"/>
      <point x="237" y="472"/>
      <point x="186" y="472" type="curve" smooth="yes"/>
      <point x="135" y="472"/>
      <point x="100" y="508"/>
    </contour>
  </outline>
</glyph>
<glyph name="plusminus" format="2">
  <advance width="600"/>
  <unicode hex="00B1"/>
  <outline>
    <contour>
      <point x="79.0" y="70" type="line"/>
      <point x="521.0" y="70" type="line"/>
      <point x="521.0" y="124" type="line"/>
      <point x="79.0" y="124" type="line"/>
    </contour>
    <contour>
      <point x="79.0" y="283" type="line"/>
      <point x="521.0" y="283" type="line"/>
      <point x="521.0" y="337" type="line"/>
      <point x="79.0" y="337" type="line"/>
    </contour>
    <contour>
      <point x="272.0" y="70" type="line"/>
      <point x="328.0" y="70" type="line"/>
      <point x="328.0" y="510" type="line"/>
      <point x="272.0" y="510" type="line"/>
    </contour>
  </outline>
</glyph>
<glyph name="twosuperior" format="2">
	<advance width="440"/>
	<unicode hex="00B2"/>
	<outline>
		<contour>
			<point x="76" y="290" type="line"/>
			<point x="360" y="290" type="line"/>
			<point x="360" y="340" type="line"/>
			<point x="136" y="340" type="line"/>
			<point x="76" y="326" type="line"/>
		</contour>
		<contour>
			<point x="76" y="326" type="line"/>
			<point x="108" y="290" type="line"/>
			<point x="260" y="435" type="line" smooth="yes"/>
			<point x="310" y="482"/>
			<point x="346" y="530"/>
			<point x="346" y="575" type="curve" smooth="yes"/>
			<point x="346" y="650"/>
			<point x="286" y="698"/>
			<point x="212" y="698" type="curve" smooth="yes"/>
			<point x="154" y="698"/>
			<point x="112" y="674"/>
			<point x="68" y="628" type="curve"/>
			<point x="104" y="592" type="line"/>
			<point x="134" y="625"/>
			<point x="169" y="648"/>
			<point x="210" y="648" type="curve" smooth="yes"/>
			<point x="258" y="648"/>
			<point x="290" y="615"/>
			<point x="290" y="575" type="curve" smooth="yes"/>
			<point x="290" y="540"/>
			<point x="266" y="510"/>
			<point x="225" y="470" type="curve" smooth="yes"/>
		</contour>
	</outline>
</glyph>
<glyph name="threesuperior" format="1">
  <advance width="440"/>
  <unicode hex="00B3"/>
  <outline>
    <contour>
      <point x="58" y="340" type="line"/>
      <point x="100" y="300"/>
      <point x="146" y="282"/>
      <point x="210" y="282" type="curve" smooth="yes"/>
      <point x="289" y="282"/>
      <point x="358" y="325"/>
      <point x="358" y="400" type="curve" smooth="yes"/>
      <point x="358" y="475"/>
      <point x="295" y="520"/>
      <point x="211" y="520" type="curve" smooth="yes"/>
      <point x="176" y="520" type="line"/>
      <point x="145" y="514" type="line"/>
      <point x="145" y="475" type="line"/>
      <point x="194" y="475" type="line" smooth="yes"/>
      <point x="260" y="475"/>
      <point x="302" y="445"/>
      <point x="302" y="400" type="curve" smooth="yes"/>
      <point x="302" y="355"/>
      <point x="260" y="332"/>
      <point x="210" y="332" type="curve" smooth="yes"/>
      <point x="161" y="332"/>
      <point x="124" y="348"/>
      <point x="96" y="378" type="curve"/>
    </contour>
    <contour>
      <point x="76" y="640" type="line"/>
      <point x="298" y="640" type="line"/>
      <point x="338" y="650" type="line"/>
      <point x="338" y="690" type="line"/>
      <point x="76" y="690" type="line"/>
    </contour>
    <contour>
      <point x="145" y="514" type="line"/>
      <point x="212" y="514" type="line"/>
      <point x="338" y="650" type="line"/>
      <point x="308" y="690" type="line"/>
    </contour>
  </outline>
</glyph>
<glyph name="cedilla" format="1">
  <advance width="600"/>
  <unicode hex="00B8"/>
  <outline>
    <contour>
      <point x="231" y="-224" type="line"/>
      <point x="246" y="-224" type="line" smooth="yes"/>
      <point x="347" y="-224"/>
      <point x="380" y="-178"/>
      <point x="380" y="-136" type="curve" smooth="yes"/>
      <point x="380" y="-105"/>
      <point x="358.2295548827848" y="-73.0382591471308"/>
      <point x="310" y="-65" type="curve"/>
      <point x="324" y="9" type="line"/>
      <point x="284" y="15" type="line"/>
      <point x="262" y="-98" type="line"/>
      <point x="285" y="-100" type="line" smooth="yes"/>
      <point x="316.14867768263815" y="-102.70858066805549"/>
      <point x="328" y="-119"/>
      <point x="328" y="-138" type="curve" smooth="yes"/>
      <point x="328" y="-163"/>
      <point x="310" y="-185"/>
      <point x="240" y="-185" type="curve"/>
    </contour>
    <contour>
      <point x="300" y="0" type="move" name="_bottom"/>
    </contour>
  </outline>
</glyph>
<glyph name="onesuperior" format="2">
	<advance width="440"/>
	<unicode hex="00B9"/>
	<outline>
		<contour>
			<point x="94" y="290" type="line"/>
			<point x="370" y="290" type="line"/>
			<point x="370" y="338" type="line"/>
			<point x="94" y="338" type="line"/>
		</contour>
		<contour>
			<point x="78" y="624" type="line"/>
			<point x="98" y="578" type="line"/>
			<point x="239" y="642" type="line"/>
			<point x="222" y="690" type="line"/>
		</contour>
		<contour>
			<point x="204" y="290" type="line"/>
			<point x="260" y="290" type="line"/>
			<point x="260" y="690" type="line"/>
			<point x="222" y="690" type="line"/>
			<point x="204" y="637" type="line"/>
		</contour>
	</outline>
</glyph>
<glyph name="ordmasculine" format="2">
	<advance width="480"/>
	<unicode hex="00BA"/>
	<outline>
		<contour>
			<point x="60" y="490" type="curve" smooth="yes"/>
			<point x="60" y="348"/>
			<point x="142" y="282"/>
			<point x="240" y="282" type="curve" smooth="yes"/>
			<point x="338" y="282"/>
			<point x="420" y="348"/>
			<point x="420" y="490" type="curve" smooth="yes"/>
			<point x="420" y="632"/>
			<point x="338" y="698"/>
			<point x="240" y="698" type="curve" smooth="yes"/>
			<point x="142" y="698"/>
			<point x="60" y="632"/>
		</contour>
		<contour>
			<point x="116" y="490" type="curve" smooth="yes"/>
			<point x="116" y="600"/>
			<point x="170" y="648"/>
			<point x="240" y="648" type="curve" smooth="yes"/>
			<point x="310" y="648"/>
			<point x="364" y="600"/>
			<point x="364" y="490" type="curve" smooth="yes"/>
			<point x="364" y="380"/>
			<point x="310" y="332"/>
			<point x="240" y="332" type="curve" smooth="yes"/>
			<point x="170" y="332"/>
			<point x="116" y="380"/>
		</contour>
	</outline>
</glyph>
<glyph name="guillemetright" format="2">
	<advance width="482"/>
	<unicode hex="00BB"/>
	<outline>
		<contour>
			<point x="20" y="78" type="line"/>
			<point x="89" y="78" type="line"/>
			<point x="227" y="251" type="line"/>
			<point x="227" y="272" type="line"/>
			<point x="178" y="272" type="line"/>
		</contour>
		<contour>
			<point x="20" y="453" type="line"/>
			<point x="178" y="259" type="line"/>
			<point x="227" y="259" type="line"/>
			<point x="227" y="280" type="line"/>
			<point x="89" y="453" type="line"/>
		</contour>
		<contour>
			<point x="235" y="78" type="line"/>
			<point x="304" y="78" type="line"/>
			<point x="442" y="251" type="line"/>
			<point x="442" y="272" type="line"/>
			<point x="393" y="272" type="line"/>
		</contour>
		<contour>
			<point x="235" y="453" type="line"/>
			<point x="393" y="259" type="line"/>
			<point x="442" y="259" type="line"/>
			<point x="442" y="280" type="line"/>
			<point x="304" y="453" type="line"/>
		</contour>
	</outline>
</glyph>
<glyph name="threequarters" format="2">
	<advance width="671"/>
	<unicode hex="00BE"/>
	<outline>
		<component base="threesuperior" xOffset="-48"/>
		<component base="fraction" xOffset="143"/>
		<contour>
			<point x="360" y="127" type="line"/>
			<point x="391" y="91" type="line"/>
			<point x="588" y="400" type="line"/>
			<point x="534" y="400" type="line"/>
		</contour>
		<contour>
			<point x="360" y="91" type="line"/>
			<point x="661" y="91" type="line"/>
			<point x="661" y="137" type="line"/>
			<point x="400" y="137" type="line"/>
			<point x="360" y="127" type="line"/>
		</contour>
		<contour>
			<point x="548" y="0" type="line"/>
			<point x="601" y="0" type="line"/>
			<point x="601" y="400" type="line"/>
			<point x="548" y="400" type="line"/>
		</contour>
	</outline>
</glyph>
<glyph name="AE" format="1">
  <advance width="901"/>
  <unicode hex="00C6"/>
  <outline>
    <contour>
      <point x="10" y="0" type="line"/>
      <point x="72" y="0" type="line"/>
      <point x="351" y="645" type="line"/>
      <point x="349" y="690" type="line"/>
      <point x="309" y="690" type="line"/>
    </contour>
    <contour>
      <point x="147" y="226" type="line"/>
      <point x="440" y="226" type="line"/>
      <point x="440" y="280" type="line"/>
      <point x="147" y="280" type="line"/>
    </contour>
    <contour>
      <point x="415" y="0" type="line"/>
      <point x="477" y="0" type="line"/>
      <point x="477" y="690" type="line"/>
      <point x="415" y="690" type="line"/>
    </contour>
    <contour>
      <point x="445" y="0" type="line"/>
      <point x="831" y="0" type="line"/>
      <point x="831" y="54" type="line"/>
      <point x="445" y="54" type="line"/>
    </contour>
    <contour>
      <point x="445" y="322" type="line"/>
      <point x="780" y="322" type="line"/>
      <point x="780" y="374" type="line"/>
      <point x="445" y="374" type="line"/>
    </contour>
    <contour>
      <point x="340" y="636" type="line"/>
      <point x="826" y="636" type="line"/>
      <point x="826" y="690" type="line"/>
      <point x="340" y="690" type="line"/>
    </contour>
    <contour>
      <point x="520" y="690" type="move" name="top"/>
    </contour>
  </outline>
</glyph>
<glyph name="Eth" format="2">
  <advance width="696"/>
  <unicode hex="00D0"/>
  <outline>
    <contour>
      <point x="50" y="315" type="line"/>
      <point x="352" y="315" type="line"/>
      <point x="352" y="369" type="line"/>
      <point x="50" y="369" type="line"/>
    </contour>
    <contour>
      <point x="120" y="0" type="line"/>
      <point x="182" y="0" type="line"/>
      <point x="182" y="690" type="line"/>
      <point x="120" y="690" type="line"/>
    </contour>
    <contour>
      <point x="150" y="0" type="line"/>
      <point x="314" y="0" type="line" smooth="yes"/>
      <point x="492" y="0"/>
      <point x="626" y="112"/>
      <point x="626" y="345" type="curve" smooth="yes"/>
      <point x="626" y="578"/>
      <point x="492" y="690"/>
      <point x="314" y="690" type="curve" smooth="yes"/>
      <point x="150" y="690" type="line"/>
      <point x="150" y="636" type="line"/>
      <point x="309" y="636" type="line" smooth="yes"/>
      <point x="457" y="636"/>
      <point x="562" y="542"/>
      <point x="562" y="345" type="curve" smooth="yes"/>
      <point x="562" y="148"/>
      <point x="457" y="54"/>
      <point x="309" y="54" type="curve" smooth="yes"/>
      <point x="150" y="54" type="line"/>
    </contour>
  </outline>
</glyph>
<glyph name="Eth" format="1">
  <advance width="696"/>
  <unicode hex="00D0"/>
  <outline>
    <contour>
      <point x="50" y="315" type="line"/>
      <point x="352" y="315" type="line"/>
      <point x="352" y="369" type="line"/>
      <point x="50" y="369" type="line"/>
    </contour>
    <contour>
      <point x="120" y="0" type="line"/>
      <point x="182" y="0" type="line"/>
      <point x="182" y="690" type="line"/>
      <point x="120" y="690" type="line"/>
    </contour>
    <contour>
      <point x="150" y="0" type="line"/>
      <point x="314" y="0" type="line" smooth="yes"/>
      <point x="492" y="0"/>
      <point x="626" y="112"/>
      <point x="626" y="345" type="curve" smooth="yes"/>
      <point x="626" y="578"/>
      <point x="492" y="690"/>
      <point x="314" y="690" type="curve" smooth="yes"/>
      <point x="150" y="690" type="line"/>
      <point x="150" y="636" type="line"/>
      <point x="309" y="636" type="line" smooth="yes"/>
      <point x="457" y="636"/>
      <point x="562" y="542"/>
      <point x="562" y="345" type="curve" smooth="yes"/>
      <point x="562" y="148"/>
      <point x="457" y="54"/>
      <point x="309" y="54" type="curve" smooth="yes"/>
      <point x="150" y="54" type="line"/>
    </contour>
  </outline>
</glyph>
<glyph name="multiply" format="2">
  <advance width="600"/>
  <unicode hex="00D7"/>
  <outline>
    <contour>
      <point x="103.0" y="447" type="line"/>
      <point x="457.0" y="93" type="line"/>
      <point x="497.0" y="133" type="line"/>
      <point x="143.0" y="487" type="line"/>
    </contour>
    <contour>
      <point x="103.0" y="132" type="line"/>
      <point x="142.0" y="93" type="line"/>
      <point x="497.0" y="448" type="line"/>
      <point x="458.0" y="487" type="line"/>
    </contour>
  </outline>
</glyph>
<glyph name="Oslash" format="2">
	<advance width="716"/>
	<unicode hex="00D8"/>
	<anchor x="358" y="690" name="top"/>
	<outline>
		<component base="O"/>
		<contour>
			<point x="35" y="27" type="line"/>
			<point x="75" y="-10" type="line"/>
			<point x="681" y="661" type="line"/>
			<point x="641" y="698" type="line"/>
		</contour>
	</outline>
</glyph>
<glyph name="Thorn" format="2">
  <advance width="616"/>
  <unicode hex="00DE"/>
  <outline>
    <contour>
      <point x="110" y="0" type="line"/>
      <point x="172" y="0" type="line"/>
      <point x="172" y="690" type="line"/>
      <point x="110" y="690" type="line"/>
    </contour>
    <contour>
      <point x="140" y="150" type="line"/>
      <point x="344" y="150" type="line" smooth="yes"/>
      <point x="466.8471074380165" y="150.0"/>
      <point x="561.0" y="222.68181818181816"/>
      <point x="561" y="345" type="curve" smooth="yes"/>
      <point x="561.0" y="467.31818181818187"/>
      <point x="466.8471074380165" y="540.0"/>
      <point x="344" y="540" type="curve" smooth="yes"/>
      <point x="140" y="540" type="line"/>
      <point x="140" y="486" type="line"/>
      <point x="339" y="486" type="line" smooth="yes"/>
      <point x="433.97267759562845" y="486.0"/>
      <point x="497.0" y="435.88554216867476"/>
      <point x="497" y="345" type="curve" smooth="yes"/>
      <point x="497.0" y="254.1144578313253"/>
      <point x="433.97267759562845" y="204.0"/>
      <point x="339" y="204" type="curve" smooth="yes"/>
      <point x="140" y="204" type="line"/>
    </contour>
  </outline>
</glyph>
<glyph name="germandbls" format="2">
	<advance width="570"/>
	<unicode hex="00DF"/>
	<outline>
		<contour>
			<point x="90" y="0" type="line"/>
			<point x="150" y="0" type="line"/>
			<point x="150" y="534" type="line" smooth="yes"/>
			<point x="150" y="626"/>
			<point x="200" y="673"/>
			<point x="275" y="673" type="curve" smooth="yes"/>
			<point x="350" y="673"/>
			<point x="394" y="630"/>
			<point x="394" y="565" type="curve" smooth="yes"/>
			<point x="394" y="500"/>
			<point x="340" y="450"/>
			<point x="235" y="380" type="curve"/>
			<point x="235" y="330" type="line"/>
			<point x="370" y="250" type="line" smooth="yes"/>
			<point x="446" y="205"/>
			<point x="468" y="178"/>
			<point x="468" y="138" type="curve" smooth="yes"/>
			<point x="468" y="90"/>
			<point x="432" y="47"/>
			<point x="362" y="47" type="curve" smooth="yes"/>
			<point x="312" y="47"/>
			<point x="274" y="64"/>
			<point x="242" y="84" type="curve"/>
			<point x="216" y="30" type="line"/>
			<point x="244" y="14"/>
			<point x="298" y="-8"/>
			<point x="358" y="-8" type="curve" smooth="yes"/>
			<point x="458" y="-8"/>
			<point x="530" y="55"/>
			<point x="530" y="140" type="curve" smooth="yes"/>
			<point x="530" y="200"/>
			<point x="494" y="244"/>
			<point x="400" y="300" type="curve" smooth="yes"/>
			<point x="300" y="360" type="line"/>
			<point x="390" y="420"/>
			<point x="456" y="480"/>
			<point x="456" y="570" type="curve" smooth="yes"/>
			<point x="456" y="665"/>
			<point x="380" y="728"/>
			<point x="275" y="728" type="curve" smooth="yes"/>
			<point x="170" y="728"/>
			<point x="90" y="665"/>
			<point x="90" y="536" type="curve" smooth="yes"/>
		</contour>
	</outline>
</glyph>
<glyph name="ae" format="1">
  <advance width="839"/>
  <unicode hex="00E6"/>
  <outline>
    <contour>
      <point x="60" y="121" type="curve"/>
      <point x="60" y="49"/>
      <point x="115" y="-8"/>
      <point x="208" y="-8" type="curve" smooth="yes"/>
      <point x="285" y="-8"/>
      <point x="370" y="40"/>
      <point x="426" y="124" type="curve"/>
      <point x="388" y="150" type="line"/>
      <point x="336" y="78"/>
      <point x="278" y="46"/>
      <point x="218" y="46" type="curve" smooth="yes"/>
      <point x="150" y="46"/>
      <point x="119" y="81"/>
      <point x="119" y="128" type="curve"/>
      <point x="119" y="178"/>
      <point x="153" y="236"/>
      <point x="291" y="248" type="curve" smooth="yes"/>
      <point x="370" y="255" type="line"/>
      <point x="370" y="297" type="line"/>
      <point x="284" y="292" type="line" smooth="yes"/>
      <point x="119" y="282"/>
      <point x="60" y="207"/>
    </contour>
    <contour>
      <point x="74" y="472" type="curve"/>
      <point x="98" y="424" type="line"/>
      <point x="143" y="450"/>
      <point x="188" y="463"/>
      <point x="236" y="463" type="curve"/>
      <point x="313" y="463"/>
      <point x="369" y="423"/>
      <point x="369" y="324" type="curve"/>
      <point x="369" y="260" type="line"/>
      <point x="424" y="260" type="line"/>
      <point x="424" y="327" type="line" smooth="yes"/>
      <point x="424" y="454"/>
      <point x="346" y="518"/>
      <point x="240" y="518" type="curve"/>
      <point x="186" y="518"/>
      <point x="122" y="499"/>
    </contour>
    <contour>
      <point x="369" y="255" type="curve" smooth="yes"/>
      <point x="369" y="81"/>
      <point x="467" y="-8"/>
      <point x="591" y="-8" type="curve" smooth="yes"/>
      <point x="648" y="-8"/>
      <point x="703" y="13"/>
      <point x="751" y="55" type="curve"/>
      <point x="715" y="99" type="line"/>
      <point x="679" y="68"/>
      <point x="639" y="48"/>
      <point x="590" y="48" type="curve" smooth="yes"/>
      <point x="497" y="48"/>
      <point x="424" y="111"/>
      <point x="424" y="255" type="curve" smooth="yes"/>
      <point x="424" y="395"/>
      <point x="488" y="463"/>
      <point x="578" y="463" type="curve" smooth="yes"/>
      <point x="659" y="463"/>
      <point x="722" y="402"/>
      <point x="722" y="270" type="curve"/>
      <point x="735" y="294" type="line"/>
      <point x="407" y="294" type="line"/>
      <point x="407" y="244" type="line"/>
      <point x="777" y="244" type="line"/>
      <point x="778" y="254"/>
      <point x="779" y="267"/>
      <point x="779" y="280" type="curve" smooth="yes"/>
      <point x="779" y="431"/>
      <point x="690" y="518"/>
      <point x="578" y="518" type="curve" smooth="yes"/>
      <point x="457" y="518"/>
      <point x="369" y="425"/>
    </contour>
    <contour>
      <point x="412.0" y="515.0" type="move" name="top"/>
    </contour>
  </outline>
</glyph>
<glyph name="divide" format="2">
	<advance width="600"/>
	<unicode hex="00F7"/>
	<outline>
		<contour>
			<point x="79" y="263" type="line"/>
			<point x="521" y="263" type="line"/>
			<point x="521" y="317" type="line"/>
			<point x="79" y="317" type="line"/>
		</contour>
		<contour>
			<point x="257" y="106" type="curve" smooth="yes"/>
			<point x="257" y="82"/>
			<point x="276" y="62"/>
			<point x="300" y="62" type="curve" smooth="yes"/>
			<point x="325" y="62"/>
			<point x="343" y="82"/>
			<point x="343" y="106" type="curve" smooth="yes"/>
			<point x="343" y="131"/>
			<point x="325" y="151"/>
			<point x="300" y="151" type="curve" smooth="yes"/>
			<point x="276" y="151"/>
			<point x="257" y="131"/>
		</contour>
		<contour>
			<point x="257" y="473" type="curve" smooth="yes"/>
			<point x="257" y="449"/>
			<point x="276" y="429"/>
			<point x="300" y="429" type="curve" smooth="yes"/>
			<point x="325" y="429"/>
			<point x="343" y="449"/>
			<point x="343" y="473" type="curve" smooth="yes"/>
			<point x="343" y="498"/>
			<point x="325" y="518"/>
			<point x="300" y="518" type="curve" smooth="yes"/>
			<point x="276" y="518"/>
			<point x="257" y="498"/>
		</contour>
	</outline>
</glyph>
<glyph name="thorn" format="1">
  <advance width="561"/>
  <unicode hex="00FE"/>
  <outline>
    <contour>
      <point x="95" y="-196" type="line"/>
      <point x="155" y="-182" type="line"/>
      <point x="155" y="731" type="line"/>
      <point x="95" y="717" type="line"/>
    </contour>
    <contour>
      <point x="127" y="193" type="line"/>
      <point x="127" y="65"/>
      <point x="202" y="-8"/>
      <point x="297" y="-8" type="curve" smooth="yes"/>
      <point x="408" y="-8"/>
      <point x="501" y="73"/>
      <point x="501" y="260" type="curve" smooth="yes"/>
      <point x="501" y="435"/>
      <point x="416" y="518"/>
      <point x="313" y="518" type="curve" smooth="yes"/>
      <point x="248" y="518"/>
      <point x="179" y="475"/>
      <point x="140" y="417" type="curve"/>
      <point x="140" y="366" type="line"/>
      <point x="183" y="427"/>
      <point x="244" y="463"/>
      <point x="305" y="463" type="curve" smooth="yes"/>
      <point x="376" y="463"/>
      <point x="440" y="404"/>
      <point x="440" y="255" type="curve" smooth="yes"/>
      <point x="440" y="103"/>
      <point x="378" y="44"/>
      <point x="293" y="44" type="curve" smooth="yes"/>
      <point x="215" y="44"/>
      <point x="155" y="97"/>
      <point x="155" y="200" type="curve"/>
    </contour>
  </outline>
</glyph>
<glyph name="eogonek" format="1">
  <advance width="536"/>
  <unicode hex="0119"/>
  <outline>
    <contour>
      <point x="60" y="255" type="curve" smooth="yes"/>
      <point x="60" y="81"/>
      <point x="164" y="-8"/>
      <point x="288" y="-8" type="curve" smooth="yes"/>
      <point x="345" y="-8"/>
      <point x="400" y="13"/>
      <point x="448" y="55" type="curve"/>
      <point x="412" y="99" type="line"/>
      <point x="376" y="68"/>
      <point x="336" y="48"/>
      <point x="287" y="48" type="curve" smooth="yes"/>
      <point x="194" y="48"/>
      <point x="121" y="111"/>
      <point x="121" y="255" type="curve" smooth="yes"/>
      <point x="121" y="395"/>
      <point x="185" y="463"/>
      <point x="275" y="463" type="curve" smooth="yes"/>
      <point x="356" y="463"/>
      <point x="419" y="402"/>
      <point x="419" y="270" type="curve"/>
      <point x="432" y="294" type="line"/>
      <point x="104" y="294" type="line"/>
      <point x="104" y="244" type="line"/>
      <point x="474" y="244" type="line"/>
      <point x="475" y="254"/>
      <point x="476" y="267"/>
      <point x="476" y="280" type="curve" smooth="yes"/>
      <point x="476" y="431"/>
      <point x="387" y="518"/>
      <point x="275" y="518" type="curve" smooth="yes"/>
      <point x="154" y="518"/>
      <point x="60" y="425"/>
    </contour>
    <contour>
      <point x="268" y="-108" type="curve" smooth="yes"/>
      <point x="268" y="-160"/>
      <point x="308" y="-193"/>
      <point x="358" y="-193" type="curve" smooth="yes"/>
      <point x="390" y="-193"/>
      <point x="414" y="-184"/>
      <point x="438" y="-170" type="curve"/>
      <point x="422" y="-132" type="line"/>
      <point x="406" y="-141"/>
      <point x="386" y="-149"/>
      <point x="363" y="-149" type="curve" smooth="yes"/>
      <point x="333" y="-149"/>
      <point x="314" y="-130"/>
      <point x="314" y="-100" type="curve" smooth="yes"/>
      <point x="314" y="-60"/>
      <point x="378" y="-10"/>
      <point x="448" y="55" type="curve"/>
      <point x="338" y="0" type="line"/>
      <point x="308" y="-20"/>
      <point x="268" y="-62"/>
    </contour>
  </outline>
</glyph>
<glyph name="Hbar" format="2">
	<advance width="726"/>
	<unicode hex="0126"/>
	<outline>
		<contour>
			<point x="115" y="0" type="line"/>
			<point x="177" y="0" type="line"/>
			<point x="177" y="690" type="line"/>
			<point x="115" y="690" type="line"/>
		</contour>
		<contour>
			<point x="145" y="321" type="line"/>
			<point x="581" y="321" type="line"/>
			<point x="581" y="375" type="line"/>
			<point x="145" y="375" type="line"/>
		</contour>
		<contour>
			<point x="549" y="0" type="line"/>
			<point x="611" y="0" type="line"/>
			<point x="611" y="690" type="line"/>
			<point x="549" y="690" type="line"/>
		</contour>
		<contour>
			<point x="40" y="526" type="line"/>
			<point x="686" y="526" type="line"/>
			<point x="686" y="580" type="line"/>
			<point x="40" y="580" type="line"/>
		</contour>
	</outline>
</glyph>
<glyph name="hbar" format="2">
	<advance width="580"/>
	<unicode hex="0127"/>
	<outline>
		<contour>
			<point x="100" y="0" type="line"/>
			<point x="160" y="0" type="line"/>
			<point x="160" y="731" type="line"/>
			<point x="100" y="717" type="line"/>
		</contour>
		<contour>
			<point x="145" y="368" type="line"/>
			<point x="189" y="427"/>
			<point x="252" y="463"/>
			<point x="315" y="463" type="curve" smooth="yes"/>
			<point x="378" y="463"/>
			<point x="430" y="423"/>
			<point x="430" y="320" type="curve" smooth="yes"/>
			<point x="430" y="0" type="line"/>
			<point x="490" y="0" type="line"/>
			<point x="490" y="325" type="line" smooth="yes"/>
			<point x="490" y="453"/>
			<point x="414" y="518"/>
			<point x="323" y="518" type="curve" smooth="yes"/>
			<point x="256" y="518"/>
			<point x="185" y="475"/>
			<point x="145" y="417" type="curve"/>
		</contour>
		<contour>
			<point x="25" y="585" type="line"/>
			<point x="310" y="585" type="line"/>
			<point x="310" y="635" type="line"/>
			<point x="25" y="635" type="line"/>
		</contour>
	</outline>
</glyph>
<glyph name="IJ" format="1">
  <advance width="726"/>
  <unicode hex="0132"/>
  <outline>
    <contour>
      <point x="110" y="0" type="line"/>
      <point x="172" y="0" type="line"/>
      <point x="172" y="690" type="line"/>
      <point x="110" y="690" type="line"/>
    </contour>
    <contour>
      <point x="305" y="27" type="line"/>
      <point x="338" y="4"/>
      <point x="377.0" y="-8.0"/>
      <point x="419.0" y="-8.0" type="curve" smooth="yes"/>
      <point x="534.0" y="-8.0"/>
      <point x="626.0" y="68.0"/>
      <point x="626.0" y="215.0" type="curve" smooth="yes"/>
      <point x="626.0" y="690.0" type="line"/>
      <point x="564.0" y="690.0" type="line"/>
      <point x="564.0" y="220.0" type="line" smooth="yes"/>
      <point x="564.0" y="106.0"/>
      <point x="500.0" y="49.0"/>
      <point x="419.0" y="49.0" type="curve" smooth="yes"/>
      <point x="386.0" y="49.0"/>
      <point x="358" y="59"/>
      <point x="333" y="77" type="curve"/>
    </contour>
  </outline>
</glyph>
<glyph name="IJ" format="2">
  <advance width="726"/>
  <unicode hex="0132"/>
  <outline>
    <contour>
      <point x="110" y="0" type="line"/>
      <point x="172" y="0" type="line"/>
      <point x="172" y="690" type="line"/>
      <point x="110" y="690" type="line"/>
    </contour>
    <contour>
      <point x="305" y="27" type="line"/>
      <point x="338" y="4"/>
      <point x="377.0" y="-8.0"/>
      <point x="419.0" y="-8.0" type="curve" smooth="yes"/>
      <point x="534.0" y="-8.0"/>
      <point x="626.0" y="68.0"/>
      <point x="626.0" y="215.0" type="curve" smooth="yes"/>
      <point x="626.0" y="690.0" type="line"/>
      <point x="564.0" y="690.0" type="line"/>
      <point x="564.0" y="220.0" type="line" smooth="yes"/>
      <point x="564.0" y="106.0"/>
      <point x="500.0" y="49.0"/>
      <point x="419.0" y="49.0" type="curve" smooth="yes"/>
      <point x="386.0" y="49.0"/>
      <point x="358" y="59"/>
      <point x="333" y="77" type="curve"/>
    </contour>
  </outline>
</glyph>
<glyph name="Lslash" format="2">
	<advance width="552"/>
	<unicode hex="0141"/>
	<outline>
		<contour>
			<point x="120" y="0" type="line"/>
			<point x="182" y="0" type="line"/>
			<point x="182" y="690" type="line"/>
			<point x="120" y="690" type="line"/>
		</contour>
		<contour>
			<point x="150" y="0" type="line"/>
			<point x="502" y="0" type="line"/>
			<point x="502" y="54" type="line"/>
			<point x="150" y="54" type="line"/>
		</contour>
		<contour>
			<point x="45" y="220" type="line"/>
			<point x="332" y="380" type="line"/>
			<point x="332" y="440" type="line"/>
			<point x="45" y="280" type="line"/>
		</contour>
	</outline>
</glyph>
<glyph name="lslash" format="2">
  <advance width="270"/>
  <unicode hex="0142"/>
  <outline>
    <contour>
      <point x="105" y="0" type="line"/>
      <point x="165" y="0" type="line"/>
      <point x="165" y="731" type="line"/>
      <point x="105" y="717" type="line"/>
    </contour>
    <contour>
      <point x="35" y="230" type="line"/>
      <point x="240" y="346" type="line"/>
      <point x="240" y="404" type="line"/>
      <point x="35" y="288" type="line"/>
    </contour>
  </outline>
</glyph>
<glyph name="Eng" format="2">
	<advance width="726"/>
	<unicode hex="014A"/>
	<outline>
		<contour>
			<point x="110" y="0" type="line"/>
			<point x="172" y="0" type="line"/>
			<point x="172" y="690" type="line"/>
			<point x="110" y="690" type="line"/>
		</contour>
		<contour>
			<point x="128" y="690" type="line"/>
			<point x="554" y="0" type="line"/>
			<point x="612" y="14" type="line"/>
			<point x="195" y="690" type="line"/>
		</contour>
		<contour>
			<point x="412" y="-177" type="line"/>
			<point x="432" y="-187"/>
			<point x="460" y="-193"/>
			<point x="482" y="-193" type="curve"/>
			<point x="563" y="-193"/>
			<point x="616" y="-136"/>
			<point x="616" y="-48" type="curve" smooth="yes"/>
			<point x="616" y="690" type="line"/>
			<point x="554" y="690" type="line"/>
			<point x="554" y="-47" type="line" smooth="yes"/>
			<point x="554" y="-112"/>
			<point x="526" y="-138"/>
			<point x="480" y="-138" type="curve"/>
			<point x="461" y="-138"/>
			<point x="443" y="-134"/>
			<point x="425" y="-126" type="curve"/>
		</contour>
	</outline>
</glyph>
<glyph name="OE" format="1">
  <advance width="936"/>
  <unicode hex="0152"/>
  <outline>
    <contour>
      <point x="70" y="345" type="curve" smooth="yes"/>
      <point x="70" y="112"/>
      <point x="218" y="0"/>
      <point x="398" y="0" type="curve" smooth="yes"/>
      <point x="483" y="0" type="line"/>
      <point x="483" y="54" type="line"/>
      <point x="398" y="54" type="line" smooth="yes"/>
      <point x="251" y="54"/>
      <point x="134" y="148"/>
      <point x="134" y="345" type="curve" smooth="yes"/>
      <point x="134" y="542"/>
      <point x="251" y="636"/>
      <point x="398" y="636" type="curve" smooth="yes"/>
      <point x="483" y="636" type="line"/>
      <point x="483" y="690" type="line"/>
      <point x="398" y="690" type="line" smooth="yes"/>
      <point x="218" y="690"/>
      <point x="70" y="578"/>
    </contour>
    <contour>
      <point x="470" y="0" type="line"/>
      <point x="532" y="0" type="line"/>
      <point x="532" y="690" type="line"/>
      <point x="470" y="690" type="line"/>
    </contour>
    <contour>
      <point x="500" y="0" type="line"/>
      <point x="866" y="0" type="line"/>
      <point x="866" y="54" type="line"/>
      <point x="500" y="54" type="line"/>
    </contour>
    <contour>
      <point x="500" y="322" type="line"/>
      <point x="815" y="322" type="line"/>
      <point x="815" y="374" type="line"/>
      <point x="500" y="374" type="line"/>
    </contour>
    <contour>
      <point x="500" y="636" type="line"/>
      <point x="861" y="636" type="line"/>
      <point x="861" y="690" type="line"/>
      <point x="500" y="690" type="line"/>
    </contour>
  </outline>
</glyph>
<glyph name="OE" format="2">
	<advance width="936"/>
	<unicode hex="0152"/>
	<outline>
		<contour>
			<point x="70" y="345" type="curve" smooth="yes"/>
			<point x="70" y="112"/>
			<point x="218" y="0"/>
			<point x="398" y="0" type="curve" smooth="yes"/>
			<point x="483" y="0" type="line"/>
			<point x="483" y="54" type="line"/>
			<point x="398" y="54" type="line" smooth="yes"/>
			<point x="251" y="54"/>
			<point x="134" y="148"/>
			<point x="134" y="345" type="curve" smooth="yes"/>
			<point x="134" y="542"/>
			<point x="251" y="636"/>
			<point x="398" y="636" type="curve" smooth="yes"/>
			<point x="483" y="636" type="line"/>
			<point x="483" y="690" type="line"/>
			<point x="398" y="690" type="line" smooth="yes"/>
			<point x="218" y="690"/>
			<point x="70" y="578"/>
		</contour>
		<contour>
			<point x="470" y="0" type="line"/>
			<point x="532" y="0" type="line"/>
			<point x="532" y="690" type="line"/>
			<point x="470" y="690" type="line"/>
		</contour>
		<contour>
			<point x="500" y="0" type="line"/>
			<point x="866" y="0" type="line"/>
			<point x="866" y="54" type="line"/>
			<point x="500" y="54" type="line"/>
		</contour>
		<contour>
			<point x="500" y="322" type="line"/>
			<point x="815" y="322" type="line"/>
			<point x="815" y="374" type="line"/>
			<point x="500" y="374" type="line"/>
		</contour>
		<contour>
			<point x="500" y="636" type="line"/>
			<point x="861" y="636" type="line"/>
			<point x="861" y="690" type="line"/>
			<point x="500" y="690" type="line"/>
		</contour>
	</outline>
</glyph>
<glyph name="Tbar" format="2">
	<advance width="574"/>
	<unicode hex="0166"/>
	<outline>
		<contour>
			<point x="40" y="636" type="line"/>
			<point x="534" y="636" type="line"/>
			<point x="534" y="690" type="line"/>
			<point x="40" y="690" type="line"/>
		</contour>
		<contour>
			<point x="256" y="0" type="line"/>
			<point x="318" y="0" type="line"/>
			<point x="318" y="690" type="line"/>
			<point x="256" y="690" type="line"/>
		</contour>
		<contour>
			<point x="106" y="306" type="line"/>
			<point x="468" y="306" type="line"/>
			<point x="468" y="360" type="line"/>
			<point x="106" y="360" type="line"/>
		</contour>
	</outline>
</glyph>
<glyph name="tbar" format="2">
	<advance width="397"/>
	<unicode hex="0167"/>
	<outline>
		<contour>
			<point x="40" y="460" type="line"/>
			<point x="342" y="460" type="line"/>
			<point x="342" y="510" type="line"/>
			<point x="40" y="510" type="line"/>
		</contour>
		<contour>
			<point x="133" y="135" type="line" smooth="yes"/>
			<point x="133" y="44"/>
			<point x="185" y="-8"/>
			<point x="264" y="-8" type="curve"/>
			<point x="293" y="-8"/>
			<point x="327" y="0"/>
			<point x="352" y="13" type="curve"/>
			<point x="339" y="64" type="line"/>
			<point x="314" y="52"/>
			<point x="290" y="47"/>
			<point x="270" y="47" type="curve"/>
			<point x="224" y="47"/>
			<point x="193" y="73"/>
			<point x="193" y="138" type="curve" smooth="yes"/>
			<point x="193" y="654" type="line"/>
			<point x="133" y="640" type="line"/>
		</contour>
		<contour>
			<point x="40" y="250" type="line"/>
			<point x="342" y="250" type="line"/>
			<point x="342" y="300" type="line"/>
			<point x="40" y="300" type="line"/>
		</contour>
	</outline>
</glyph>
<glyph name="florin" format="2">
  <advance width="600"/>
  <unicode hex="0192"/>
  <outline>
    <contour>
      <point x="109.0" y="-177" type="line"/>
      <point x="129.0" y="-187"/>
      <point x="157.0" y="-193"/>
      <point x="179.0" y="-193" type="curve"/>
      <point x="260.0" y="-193"/>
      <point x="313.0" y="-136"/>
      <point x="313.0" y="-48" type="curve" smooth="yes"/>
      <point x="313.0" y="572" type="line" smooth="yes"/>
      <point x="313.0" y="645"/>
      <point x="344.0" y="674"/>
      <point x="397.0" y="674" type="curve"/>
      <point x="421.0" y="674"/>
      <point x="444.0" y="668"/>
      <point x="472.0" y="654" type="curve"/>
      <point x="486.0" y="704" type="line"/>
      <point x="462.0" y="718"/>
      <point x="425.0" y="728"/>
      <point x="392.0" y="728" type="curve"/>
      <point x="309.0" y="728"/>
      <point x="253.0" y="675"/>
      <point x="253.0" y="575" type="curve" smooth="yes"/>
      <point x="253.0" y="-47" type="line" smooth="yes"/>
      <point x="253.0" y="-112"/>
      <point x="223.0" y="-138"/>
      <point x="177.0" y="-138" type="curve"/>
      <point x="158.0" y="-138"/>
      <point x="140.0" y="-134"/>
      <point x="122.0" y="-126" type="curve"/>
    </contour>
    <contour>
      <point x="160.0" y="460" type="line"/>
      <point x="460.0" y="460" type="line"/>
      <point x="460.0" y="510" type="line"/>
      <point x="160.0" y="510" type="line"/>
    </contour>
  </outline>
</glyph>
<glyph name="Oogonek" format="2">
	<advance width="716"/>
	<unicode hex="01EA"/>
	<outline>
		<contour>
			<point x="510" y="-170" type="curve"/>
			<point x="494" y="-132" type="line"/>
			<point x="478" y="-141"/>
			<point x="458" y="-149"/>
			<point x="435" y="-149" type="curve" smooth="yes"/>
			<point x="405" y="-149"/>
			<point x="386" y="-130"/>
			<point x="386" y="-100" type="curve" smooth="yes"/>
			<point x="386" y="-64"/>
			<point x="437" y="-16"/>
			<point x="510" y="36" type="curve" smooth="yes"/>
			<point x="592" y="94"/>
			<point x="646" y="194"/>
			<point x="646" y="345" type="curve" smooth="yes"/>
			<point x="646" y="578"/>
			<point x="516" y="698"/>
			<point x="358" y="698" type="curve" smooth="yes"/>
			<point x="200" y="698"/>
			<point x="70" y="578"/>
			<point x="70" y="345" type="curve" smooth="yes"/>
			<point x="70" y="112"/>
			<point x="200" y="-8"/>
			<point x="358" y="-8" type="curve" smooth="yes"/>
			<point x="373" y="-8"/>
			<point x="389" y="-7"/>
			<point x="404" y="-5" type="curve"/>
			<point x="375" y="-26"/>
			<point x="340" y="-65"/>
			<point x="340" y="-108" type="curve" smooth="yes"/>
			<point x="340" y="-160"/>
			<point x="380" y="-193"/>
			<point x="430" y="-193" type="curve" smooth="yes"/>
			<point x="462" y="-193"/>
			<point x="486" y="-184"/>
		</contour>
		<contour>
			<point x="134" y="345" type="curve" smooth="yes"/>
			<point x="134" y="542"/>
			<point x="233" y="641"/>
			<point x="358" y="641" type="curve" smooth="yes"/>
			<point x="483" y="641"/>
			<point x="582" y="542"/>
			<point x="582" y="345" type="curve" smooth="yes"/>
			<point x="582" y="148"/>
			<point x="483" y="49"/>
			<point x="358" y="49" type="curve" smooth="yes"/>
			<point x="233" y="49"/>
			<point x="134" y="148"/>
		</contour>
	</outline>
</glyph>
<glyph name="oogonek" format="1">
  <advance width="544"/>
  <unicode hex="01EB"/>
  <outline>
    <contour>
      <point x="405" y="-170" type="curve"/>
      <point x="389" y="-132" type="line"/>
      <point x="373" y="-141"/>
      <point x="353" y="-149"/>
      <point x="330" y="-149" type="curve" smooth="yes"/>
      <point x="300" y="-149"/>
      <point x="281" y="-130"/>
      <point x="281" y="-100" type="curve" smooth="yes"/>
      <point x="281" y="-66"/>
      <point x="326" y="-24"/>
      <point x="386" y="24" type="curve" smooth="yes"/>
      <point x="446" y="72"/>
      <point x="484" y="144"/>
      <point x="484" y="255" type="curve" smooth="yes"/>
      <point x="484" y="426"/>
      <point x="392" y="518"/>
      <point x="272" y="518" type="curve" smooth="yes"/>
      <point x="152" y="518"/>
      <point x="60" y="426"/>
      <point x="60" y="255" type="curve" smooth="yes"/>
      <point x="60" y="84"/>
      <point x="152" y="-8"/>
      <point x="272" y="-8" type="curve" smooth="yes"/>
      <point x="280" y="-8"/>
      <point x="288" y="-8"/>
      <point x="296" y="-7" type="curve"/>
      <point x="267" y="-29"/>
      <point x="235" y="-67"/>
      <point x="235" y="-108" type="curve" smooth="yes"/>
      <point x="235" y="-160"/>
      <point x="275" y="-193"/>
      <point x="325" y="-193" type="curve" smooth="yes"/>
      <point x="357" y="-193"/>
      <point x="381" y="-184"/>
    </contour>
    <contour>
      <point x="121" y="255" type="curve" smooth="yes"/>
      <point x="121" y="396"/>
      <point x="183" y="463"/>
      <point x="272" y="463" type="curve" smooth="yes"/>
      <point x="361" y="463"/>
      <point x="423" y="396"/>
      <point x="423" y="255" type="curve" smooth="yes"/>
      <point x="423" y="114"/>
      <point x="361" y="47"/>
      <point x="272" y="47" type="curve" smooth="yes"/>
      <point x="183" y="47"/>
      <point x="121" y="114"/>
    </contour>
  </outline>
</glyph>
<glyph name="ipa:schwa" format="1">
  <advance width="536"/>
  <unicode hex="0259"/>
  <outline>
    <contour>
      <point x="60" y="230" type="curve" smooth="yes"/>
      <point x="60" y="79"/>
      <point x="149" y="-8"/>
      <point x="261" y="-8" type="curve" smooth="yes"/>
      <point x="382" y="-8"/>
      <point x="476" y="85"/>
      <point x="476" y="255" type="curve" smooth="yes"/>
      <point x="476" y="429"/>
      <point x="372" y="518"/>
      <point x="248" y="518" type="curve" smooth="yes"/>
      <point x="191" y="518"/>
      <point x="136" y="497"/>
      <point x="88" y="455" type="curve"/>
      <point x="124" y="411" type="line"/>
      <point x="160" y="442"/>
      <point x="200" y="462"/>
      <point x="249" y="462" type="curve" smooth="yes"/>
      <point x="342" y="462"/>
      <point x="415" y="399"/>
      <point x="415" y="255" type="curve" smooth="yes"/>
      <point x="415" y="115"/>
      <point x="351" y="47"/>
      <point x="261" y="47" type="curve" smooth="yes"/>
      <point x="180" y="47"/>
      <point x="117" y="108"/>
      <point x="117" y="240" type="curve"/>
      <point x="104" y="216" type="line"/>
      <point x="432" y="216" type="line"/>
      <point x="432" y="266" type="line"/>
      <point x="62" y="266" type="line"/>
      <point x="61" y="256"/>
      <point x="60" y="243"/>
    </contour>
  </outline>
</glyph>
<glyph name="nhookleft" format="2">
	<advance width="575"/>
	<unicode hex="0272"/>
	<outline>
		<contour>
			<point x="-49" y="-177" type="line"/>
			<point x="-29" y="-187"/>
			<point x="-1" y="-193"/>
			<point x="21" y="-193" type="curve" smooth="yes"/>
			<point x="102" y="-193"/>
			<point x="155" y="-136"/>
			<point x="155" y="-48" type="curve"/>
			<point x="155" y="407" type="line"/>
			<point x="139" y="510" type="line"/>
			<point x="84" y="510" type="line"/>
			<point x="90" y="471" type="line" smooth="yes"/>
			<point x="94" y="442"/>
			<point x="95" y="421"/>
			<point x="95" y="388" type="curve" smooth="yes"/>
			<point x="95" y="-47" type="line" smooth="yes"/>
			<point x="95" y="-112"/>
			<point x="65" y="-138"/>
			<point x="19" y="-138" type="curve" smooth="yes"/>
			<point x="0" y="-138"/>
			<point x="-18" y="-134"/>
			<point x="-36" y="-126" type="curve"/>
		</contour>
		<contour>
			<point x="140" y="366" type="line"/>
			<point x="184" y="427"/>
			<point x="247" y="463"/>
			<point x="310" y="463" type="curve"/>
			<point x="373" y="463"/>
			<point x="425" y="423"/>
			<point x="425" y="320" type="curve" smooth="yes"/>
			<point x="425" y="0" type="line"/>
			<point x="485" y="0" type="line"/>
			<point x="485" y="325" type="line" smooth="yes"/>
			<point x="485" y="453"/>
			<point x="409" y="518"/>
			<point x="318" y="518" type="curve"/>
			<point x="251" y="518"/>
			<point x="180" y="475"/>
			<point x="140" y="417" type="curve"/>
		</contour>
	</outline>
</glyph>
<glyph name="caron" format="2">
	<advance width="600"/>
	<unicode hex="02C7"/>
	<anchor x="300" y="510" name="_top"/>
	<outline>
		<contour>
			<point x="175" y="735" type="line"/>
			<point x="264" y="585" type="line"/>
			<point x="331" y="585" type="line"/>
			<point x="230" y="735" type="line"/>
		</contour>
		<contour>
			<point x="269" y="585" type="line"/>
			<point x="336" y="585" type="line"/>
			<point x="425" y="735" type="line"/>
			<point x="370" y="735" type="line"/>
		</contour>
	</outline>
</glyph>
<glyph name="dotaccent" format="2">
  <advance width="600"/>
  <unicode hex="02D9"/>
  <anchor x="300" y="510" name="_top"/>
  <outline>
    <contour>
      <point x="257" y="683" type="curve" smooth="yes"/>
      <point x="257" y="659"/>
      <point x="276" y="639"/>
      <point x="300" y="639" type="curve" smooth="yes"/>
      <point x="325" y="639"/>
      <point x="343" y="659"/>
      <point x="343" y="683" type="curve" smooth="yes"/>
      <point x="343" y="708"/>
      <point x="325" y="728"/>
      <point x="300" y="728" type="curve" smooth="yes"/>
      <point x="276" y="728"/>
      <point x="257" y="708"/>
    </contour>
  </outline>
</glyph>
<glyph name="ogonek" format="2">
	<advance width="600"/>
	<unicode hex="02DB"/>
	<anchor x="300" y="0" name="_ogonek"/>
	<outline>
		<contour>
			<point x="230" y="-108" type="curve" smooth="yes"/>
			<point x="230" y="-160"/>
			<point x="270" y="-193"/>
			<point x="320" y="-193" type="curve" smooth="yes"/>
			<point x="352" y="-193"/>
			<point x="376" y="-184"/>
			<point x="400" y="-170" type="curve"/>
			<point x="384" y="-132" type="line"/>
			<point x="368" y="-141"/>
			<point x="348" y="-149"/>
			<point x="325" y="-149" type="curve" smooth="yes"/>
			<point x="295" y="-149"/>
			<point x="276" y="-130"/>
			<point x="276" y="-100" type="curve" smooth="yes"/>
			<point x="276" y="-64"/>
			<point x="310" y="-30"/>
			<point x="355" y="0" type="curve"/>
			<point x="300" y="0" type="line"/>
			<point x="264" y="-20"/>
			<point x="230" y="-62"/>
		</contour>
	</outline>
</glyph>
<glyph name="acutecomb" format="2">
	<advance width="0"/>
	<unicode hex="0301"/>
	<anchor x="0" y="510" name="_top"/>
	<outline>
		<contour>
			<point x="-32" y="585" type="line"/>
			<point x="23" y="585" type="line"/>
			<point x="127" y="735" type="line"/>
			<point x="53" y="735" type="line"/>
		</contour>
	</outline>
</glyph>
<glyph name="circumflexcomb" format="2">
	<advance width="0"/>
	<unicode hex="0302"/>
	<anchor x="0" y="510" name="_top"/>
	<anchor x="0" y="709" name="top"/>
	<outline>
		<contour>
			<point x="-125" y="585" type="line"/>
			<point x="-70" y="585" type="line"/>
			<point x="31" y="735" type="line"/>
			<point x="-36" y="735" type="line"/>
		</contour>
		<contour>
			<point x="-31" y="735" type="line"/>
			<point x="70" y="585" type="line"/>
			<point x="125" y="585" type="line"/>
			<point x="36" y="735" type="line"/>
		</contour>
	</outline>
</glyph>
<glyph name="tildecomb" format="2">
	<advance width="0"/>
	<unicode hex="0303"/>
	<anchor x="0" y="510" name="_top"/>
	<outline>
		<contour>
			<point x="-136" y="610" type="curve"/>
			<point x="-92" y="610" type="line"/>
			<point x="-86" y="655"/>
			<point x="-72" y="671"/>
			<point x="-54" y="671" type="curve" smooth="yes"/>
			<point x="-20" y="671"/>
			<point x="-2" y="605"/>
			<point x="56" y="605" type="curve"/>
			<point x="97" y="605"/>
			<point x="128" y="645"/>
			<point x="136" y="715" type="curve"/>
			<point x="92" y="715" type="line"/>
			<point x="86" y="670"/>
			<point x="72" y="654"/>
			<point x="55" y="654" type="curve" smooth="yes"/>
			<point x="19" y="654"/>
			<point x="2" y="720"/>
			<point x="-56" y="720" type="curve"/>
			<point x="-98" y="720"/>
			<point x="-128" y="680"/>
		</contour>
	</outline>
</glyph>
<glyph name="macroncomb" format="2">
	<advance width="0"/>
	<unicode hex="0304"/>
	<anchor x="0" y="510" name="_top"/>
	<anchor x="0" y="720" name="top"/>
	<outline>
		<contour>
			<point x="-136" y="640" type="line"/>
			<point x="136" y="640" type="line"/>
			<point x="136" y="690" type="line"/>
			<point x="-136" y="690" type="line"/>
		</contour>
	</outline>
</glyph>
<glyph name="brevecomb" format="2">
	<advance width="0"/>
	<unicode hex="0306"/>
	<anchor x="0" y="510" name="_top"/>
	<anchor x="0" y="695" name="top"/>
	<outline>
		<contour>
			<point x="-126" y="730" type="line"/>
			<point x="-118" y="650"/>
			<point x="-75" y="595"/>
			<point x="0" y="595" type="curve" smooth="yes"/>
			<point x="75" y="595"/>
			<point x="118" y="650"/>
			<point x="126" y="730" type="curve"/>
			<point x="76" y="730" type="line"/>
			<point x="70" y="670"/>
			<point x="40" y="645"/>
			<point x="0" y="645" type="curve" smooth="yes"/>
			<point x="-40" y="645"/>
			<point x="-70" y="670"/>
			<point x="-76" y="730" type="curve"/>
		</contour>
	</outline>
</glyph>
<glyph name="dotaccentcomb" format="2">
	<advance width="0"/>
	<unicode hex="0307"/>
	<anchor x="0" y="510" name="_top"/>
	<anchor x="0" y="640" name="top"/>
	<outline>
		<contour>
			<point x="-43" y="620" type="curve" smooth="yes"/>
			<point x="-43" y="596"/>
			<point x="-24" y="576"/>
			<point x="0" y="576" type="curve" smooth="yes"/>
			<point x="25" y="576"/>
			<point x="43" y="596"/>
			<point x="43" y="620" type="curve" smooth="yes"/>
			<point x="43" y="645"/>
			<point x="25" y="665"/>
			<point x="0" y="665" type="curve" smooth="yes"/>
			<point x="-24" y="665"/>
			<point x="-43" y="645"/>
		</contour>
	</outline>
</glyph>
<glyph name="dieresiscomb" format="2">
	<advance width="0"/>
	<unicode hex="0308"/>
	<anchor x="0" y="510" name="_top"/>
	<outline>
		<contour>
			<point x="-137" y="685" type="curve" smooth="yes"/>
			<point x="-137" y="661"/>
			<point x="-118" y="643"/>
			<point x="-95" y="643" type="curve" smooth="yes"/>
			<point x="-71" y="643"/>
			<point x="-53" y="661"/>
			<point x="-53" y="685" type="curve" smooth="yes"/>
			<point x="-53" y="710"/>
			<point x="-71" y="728"/>
			<point x="-95" y="728" type="curve" smooth="yes"/>
			<point x="-118" y="728"/>
			<point x="-137" y="710"/>
		</contour>
		<contour>
			<point x="53" y="685" type="curve" smooth="yes"/>
			<point x="53" y="661"/>
			<point x="72" y="643"/>
			<point x="95" y="643" type="curve" smooth="yes"/>
			<point x="119" y="643"/>
			<point x="137" y="661"/>
			<point x="137" y="685" type="curve" smooth="yes"/>
			<point x="137" y="710"/>
			<point x="119" y="728"/>
			<point x="95" y="728" type="curve" smooth="yes"/>
			<point x="72" y="728"/>
			<point x="53" y="710"/>
		</contour>
	</outline>
</glyph>
<glyph name="dblgravecomb" format="2">
	<advance width="0"/>
	<unicode hex="030F"/>
	<anchor x="0" y="510" name="_top"/>
	<outline>
		<contour>
			<point x="-173" y="715" type="line"/>
			<point x="-69" y="565" type="line"/>
			<point x="-20" y="565" type="line"/>
			<point x="-105" y="715" type="line"/>
		</contour>
		<contour>
			<point x="-63" y="715" type="line"/>
			<point x="41" y="565" type="line"/>
			<point x="91" y="565" type="line"/>
			<point x="6" y="715" type="line"/>
		</contour>
	</outline>
</glyph>
<glyph name="commaturnedabovecomb" format="2">
	<advance width="0"/>
	<unicode hex="0312"/>
	<anchor x="0" y="510" name="_top"/>
	<outline>
		<contour>
			<point x="-36" y="585" type="line"/>
			<point x="33" y="585" type="line"/>
			<point x="107" y="735" type="line"/>
			<point x="53" y="735" type="line"/>
		</contour>
	</outline>
</glyph>
<glyph name="horncomb" format="2">
	<advance width="0"/>
	<unicode hex="031B"/>
	<anchor x="0" y="690" name="_horn"/>
	<outline>
		<contour>
			<point x="0" y="578" type="line"/>
			<point x="88" y="578"/>
			<point x="139" y="648"/>
			<point x="139" y="735" type="curve"/>
			<point x="79" y="735" type="line"/>
			<point x="79" y="669"/>
			<point x="35" y="638"/>
			<point x="0" y="638" type="curve"/>
		</contour>
	</outline>
</glyph>
<glyph name="dotbelowcomb" format="2">
	<advance width="0"/>
	<unicode hex="0323"/>
	<anchor x="0" y="0" name="_bottom"/>
	<outline>
		<contour>
			<point x="-43" y="-161" type="curve" smooth="yes"/>
			<point x="-43" y="-185"/>
			<point x="-24" y="-205"/>
			<point x="0" y="-205" type="curve" smooth="yes"/>
			<point x="25" y="-205"/>
			<point x="43" y="-185"/>
			<point x="43" y="-161" type="curve" smooth="yes"/>
			<point x="43" y="-136"/>
			<point x="25" y="-116"/>
			<point x="0" y="-116" type="curve" smooth="yes"/>
			<point x="-24" y="-116"/>
			<point x="-43" y="-136"/>
		</contour>
	</outline>
</glyph>
<glyph name="ogonekcomb" format="2">
	<advance width="0"/>
	<unicode hex="0328"/>
	<anchor x="0" y="0" name="_ogonek"/>
	<outline>
		<contour>
			<point x="-70" y="-108" type="curve" smooth="yes"/>
			<point x="-70" y="-160"/>
			<point x="-30" y="-193"/>
			<point x="20" y="-193" type="curve" smooth="yes"/>
			<point x="52" y="-193"/>
			<point x="76" y="-184"/>
			<point x="100" y="-170" type="curve"/>
			<point x="84" y="-132" type="line"/>
			<point x="68" y="-141"/>
			<point x="48" y="-149"/>
			<point x="25" y="-149" type="curve" smooth="yes"/>
			<point x="-5" y="-149"/>
			<point x="-24" y="-130"/>
			<point x="-24" y="-100" type="curve" smooth="yes"/>
			<point x="-24" y="-64"/>
			<point x="10" y="-30"/>
			<point x="55" y="0" type="curve"/>
			<point x="0" y="0" type="line"/>
			<point x="-36" y="-20"/>
			<point x="-70" y="-62"/>
		</contour>
	</outline>
</glyph>
<glyph name="Delta" format="2">
	<advance width="582"/>
	<unicode hex="0394"/>
	<outline>
		<contour>
			<point x="20" y="0" type="line"/>
			<point x="82" y="0" type="line"/>
			<point x="307" y="645" type="line"/>
			<point x="305" y="690" type="line"/>
			<point x="265" y="690" type="line"/>
		</contour>
		<contour>
			<point x="60" y="0" type="line"/>
			<point x="516" y="0" type="line"/>
			<point x="516" y="56" type="line"/>
			<point x="60" y="56" type="line"/>
		</contour>
		<contour>
			<point x="275" y="645" type="line"/>
			<point x="497" y="0" type="line"/>
			<point x="562" y="0" type="line"/>
			<point x="317" y="690" type="line"/>
			<point x="273" y="690" type="line"/>
		</contour>
	</outline>
</glyph>
<glyph name="pi" format="2">
  <advance width="580"/>
  <unicode hex="03C0"/>
  <outline>
    <contour>
      <point x="40" y="461" type="line"/>
      <point x="535" y="461" type="line"/>
      <point x="535" y="515" type="line"/>
      <point x="40" y="515" type="line"/>
    </contour>
    <contour>
      <point x="120" y="0" type="line"/>
      <point x="180" y="0" type="line"/>
      <point x="180" y="515" type="line"/>
      <point x="120" y="515" type="line"/>
    </contour>
    <contour>
      <point x="395" y="90" type="line" smooth="yes"/>
      <point x="395" y="20"/>
      <point x="433" y="-8"/>
      <point x="474" y="-8" type="curve" smooth="yes"/>
      <point x="487" y="-8"/>
      <point x="501" y="-5"/>
      <point x="512" y="0" type="curve"/>
      <point x="512" y="48" type="line"/>
      <point x="505" y="46"/>
      <point x="495" y="44"/>
      <point x="486" y="44" type="curve" smooth="yes"/>
      <point x="468" y="44"/>
      <point x="455" y="53"/>
      <point x="455" y="81" type="curve" smooth="yes"/>
      <point x="455" y="510" type="line"/>
      <point x="395" y="510" type="line"/>
    </contour>
  </outline>
</glyph>
<glyph name="emdash" format="1">
  <advance width="859"/>
  <unicode hex="2014"/>
  <outline>
    <contour>
      <point x="60" y="250" type="line"/>
      <point x="799" y="250" type="line"/>
      <point x="799" y="300" type="line"/>
      <point x="60" y="300" type="line"/>
    </contour>
  </outline>
</glyph>
<glyph name="quoteleft" format="2">
  <advance width="216"/>
  <unicode hex="2018"/>
  <outline>
    <contour>
      <point x="151" y="720" type="line"/>
      <point x="111" y="720" type="line"/>
      <point x="74" y="604" type="line" smooth="yes"/>
      <point x="68" y="586"/>
      <point x="64" y="570"/>
      <point x="64" y="553" type="curve" smooth="yes"/>
      <point x="64" y="525"/>
      <point x="82" y="505"/>
      <point x="107" y="505" type="curve" smooth="yes"/>
      <point x="131" y="505"/>
      <point x="150" y="525"/>
      <point x="150" y="550" type="curve" smooth="yes"/>
      <point x="150" y="571"/>
      <point x="138" y="585"/>
      <point x="122" y="591" type="curve"/>
    </contour>
  </outline>
</glyph>
<glyph name="dagger" format="2">
	<advance width="416"/>
	<unicode hex="2020"/>
	<outline>
		<contour>
			<point x="180" y="-185" type="line"/>
			<point x="236" y="-185" type="line"/>
			<point x="236" y="720" type="line"/>
			<point x="180" y="720" type="line"/>
		</contour>
		<contour>
			<point x="30" y="460" type="line"/>
			<point x="386" y="460" type="line"/>
			<point x="386" y="510" type="line"/>
			<point x="30" y="510" type="line"/>
		</contour>
	</outline>
</glyph>
<glyph name="fraction" format="2">
	<advance width="485"/>
	<unicode hex="2044"/>
	<outline>
		<contour>
			<point x="0" y="0" type="line"/>
			<point x="65" y="0" type="line"/>
			<point x="485" y="690" type="line"/>
			<point x="420" y="690" type="line"/>
		</contour>
	</outline>
</glyph>
<glyph name="colonsign" format="2">
	<advance width="626"/>
	<unicode hex="20A1"/>
	<outline>
		<component base="C"/>
		<contour>
			<point x="186" y="-121" type="line"/>
			<point x="242" y="-121" type="line"/>
			<point x="372" y="814" type="line"/>
			<point x="316" y="814" type="line"/>
		</contour>
		<contour>
			<point x="286" y="-121" type="line"/>
			<point x="342" y="-121" type="line"/>
			<point x="472" y="814" type="line"/>
			<point x="416" y="814" type="line"/>
		</contour>
	</outline>
</glyph>
<glyph name="won" format="2">
	<advance width="877"/>
	<unicode hex="20A9"/>
	<outline>
		<component base="W"/>
		<contour>
			<point x="10" y="340" type="line"/>
			<point x="867" y="340" type="line"/>
			<point x="867" y="390" type="line"/>
			<point x="10" y="390" type="line"/>
		</contour>
	</outline>
</glyph>
<glyph name="dong" format="2">
	<advance width="561"/>
	<unicode hex="20AB"/>
	<outline>
		<contour>
			<point x="60" y="304" type="curve" smooth="yes"/>
			<point x="60" y="196"/>
			<point x="128" y="92"/>
			<point x="254" y="92" type="curve" smooth="yes"/>
			<point x="319" y="92"/>
			<point x="382" y="135"/>
			<point x="421" y="193" type="curve"/>
			<point x="421" y="244" type="line"/>
			<point x="378" y="183"/>
			<point x="323" y="147"/>
			<point x="262" y="147" type="curve" smooth="yes"/>
			<point x="168" y="147"/>
			<point x="121" y="227"/>
			<point x="121" y="309" type="curve" smooth="yes"/>
			<point x="121" y="421"/>
			<point x="193" y="466"/>
			<point x="268" y="466" type="curve" smooth="yes"/>
			<point x="343" y="466"/>
			<point x="406" y="413"/>
			<point x="406" y="310" type="curve"/>
			<point x="434" y="317" type="line"/>
			<point x="434" y="445"/>
			<point x="356" y="518"/>
			<point x="264" y="518" type="curve" smooth="yes"/>
			<point x="163" y="518"/>
			<point x="60" y="451"/>
		</contour>
		<contour>
			<point x="422" y="100" type="line"/>
			<point x="477" y="100" type="line"/>
			<point x="471" y="139" type="line" smooth="yes"/>
			<point x="467" y="168"/>
			<point x="466" y="189"/>
			<point x="466" y="222" type="curve" smooth="yes"/>
			<point x="466" y="731" type="line"/>
			<point x="406" y="717" type="line"/>
			<point x="406" y="203" type="line"/>
		</contour>
		<contour>
			<point x="75" y="0" type="line"/>
			<point x="507" y="0" type="line"/>
			<point x="507" y="50" type="line"/>
			<point x="75" y="50" type="line"/>
		</contour>
		<contour>
			<point x="275" y="600" type="line"/>
			<point x="507" y="600" type="line"/>
			<point x="507" y="650" type="line"/>
			<point x="275" y="650" type="line"/>
		</contour>
	</outline>
</glyph>
<glyph name="Euro" format="2">
	<advance width="600"/>
	<unicode hex="20AC"/>
	<outline>
		<contour>
			<point x="110" y="345" type="curve" smooth="yes"/>
			<point x="110" y="112"/>
			<point x="232" y="-8"/>
			<point x="381" y="-8" type="curve" smooth="yes"/>
			<point x="456" y="-8"/>
			<point x="528" y="26"/>
			<point x="581" y="91" type="curve"/>
			<point x="533" y="128" type="line"/>
			<point x="494" y="78"/>
			<point x="438" y="49"/>
			<point x="381" y="49" type="curve" smooth="yes"/>
			<point x="265" y="49"/>
			<point x="174" y="148"/>
			<point x="174" y="345" type="curve" smooth="yes"/>
			<point x="174" y="542"/>
			<point x="267" y="641"/>
			<point x="381" y="641" type="curve" smooth="yes"/>
			<point x="440" y="641"/>
			<point x="489" y="615"/>
			<point x="528" y="565" type="curve"/>
			<point x="576" y="602" type="line"/>
			<point x="523" y="667"/>
			<point x="458" y="698"/>
			<point x="381" y="698" type="curve" smooth="yes"/>
			<point x="234" y="698"/>
			<point x="110" y="578"/>
		</contour>
		<contour>
			<point x="40" y="231" type="line"/>
			<point x="410" y="231" type="line"/>
			<point x="410" y="285" type="line"/>
			<point x="40" y="285" type="line"/>
		</contour>
		<contour>
			<point x="40" y="405" type="line"/>
			<point x="410" y="405" type="line"/>
			<point x="410" y="459" type="line"/>
			<point x="40" y="459" type="line"/>
		</contour>
	</outline>
</glyph>
<glyph name="kip" format="2">
	<advance width="615"/>
	<unicode hex="20AD"/>
	<outline>
		<component base="K"/>
		<contour>
			<point x="10" y="300" type="line"/>
			<point x="552" y="300" type="line"/>
			<point x="552" y="350" type="line"/>
			<point x="10" y="350" type="line"/>
		</contour>
	</outline>
</glyph>
<glyph name="cedi" format="2">
	<advance width="626"/>
	<unicode hex="20B5"/>
	<outline>
		<component base="C"/>
		<contour>
			<point x="319" y="-121" type="line"/>
			<point x="375" y="-121" type="line"/>
			<point x="375" y="814" type="line"/>
			<point x="319" y="814" type="line"/>
		</contour>
	</outline>
</glyph>
<glyph name="rupeeIndian" format="2">
	<advance width="626"/>
	<unicode hex="20B9"/>
	<outline>
		<contour>
			<point x="140" y="276" type="line"/>
			<point x="304" y="276" type="line" smooth="yes"/>
			<point x="439" y="276"/>
			<point x="541" y="354"/>
			<point x="541" y="483" type="curve" smooth="yes"/>
			<point x="541" y="612"/>
			<point x="439" y="690"/>
			<point x="304" y="690" type="curve" smooth="yes"/>
			<point x="140" y="690" type="line"/>
			<point x="140" y="636" type="line"/>
			<point x="299" y="636" type="line" smooth="yes"/>
			<point x="407" y="636"/>
			<point x="477" y="581"/>
			<point x="477" y="483" type="curve" smooth="yes"/>
			<point x="477" y="385"/>
			<point x="407" y="330"/>
			<point x="299" y="330" type="curve" smooth="yes"/>
			<point x="140" y="330" type="line"/>
		</contour>
		<contour>
			<point x="140" y="276" type="line"/>
			<point x="305" y="0" type="line"/>
			<point x="378" y="0" type="line"/>
			<point x="207" y="276" type="line"/>
		</contour>
		<contour>
			<point x="10" y="460" type="line"/>
			<point x="616" y="460" type="line"/>
			<point x="616" y="510" type="line"/>
			<point x="10" y="510" type="line"/>
		</contour>
		<contour>
			<point x="263" y="640" type="line"/>
			<point x="616" y="640" type="line"/>
			<point x="616" y="690" type="line"/>
			<point x="263" y="690" type="line"/>
		</contour>
	</outline>
</glyph>
<glyph name="manat" format="2">
	<advance width="692"/>
	<unicode hex="20BC"/>
	<outline>
		<component base="U" xScale="-1" yScale="-1" xOffset="692" yOffset="690"/>
		<contour>
			<point x="320" y="0" type="line"/>
			<point x="376" y="0" type="line"/>
			<point x="376" y="845" type="line"/>
			<point x="320" y="845" type="line"/>
		</contour>
	</outline>
</glyph>
<glyph name="ruble" format="2">
	<advance width="616"/>
	<unicode hex="20BD"/>
	<outline>
		<component base="P"/>
		<contour>
			<point x="10" y="120" type="line"/>
			<point x="306" y="120" type="line"/>
			<point x="306" y="170" type="line"/>
			<point x="10" y="170" type="line"/>
		</contour>
		<contour>
			<point x="10" y="254" type="line"/>
			<point x="306" y="254" type="line"/>
			<point x="306" y="304" type="line"/>
			<point x="10" y="304" type="line"/>
		</contour>
	</outline>
</glyph>
<glyph name="litre" format="1">
  <advance width="480"/>
  <unicode hex="2113"/>
  <outline>
    <contour>
      <point x="134" y="135" type="line" smooth="yes"/>
      <point x="134" y="44"/>
      <point x="186" y="-8"/>
      <point x="265" y="-8" type="curve" smooth="yes"/>
      <point x="294" y="-8"/>
      <point x="328" y="0"/>
      <point x="353" y="13" type="curve"/>
      <point x="340" y="64" type="line"/>
      <point x="315" y="52"/>
      <point x="291" y="47"/>
      <point x="271" y="47" type="curve" smooth="yes"/>
      <point x="225" y="47"/>
      <point x="194" y="73"/>
      <point x="194" y="138" type="curve" smooth="yes"/>
      <point x="194" y="558" type="line" smooth="yes"/>
      <point x="194" y="625"/>
      <point x="216" y="673"/>
      <point x="269" y="673" type="curve" smooth="yes"/>
      <point x="322" y="673"/>
      <point x="344" y="625"/>
      <point x="344" y="558" type="curve" smooth="yes"/>
      <point x="344" y="371"/>
      <point x="217" y="280"/>
      <point x="44" y="210" type="curve"/>
      <point x="66" y="158" type="line"/>
      <point x="240" y="228"/>
      <point x="406" y="346"/>
      <point x="406" y="560" type="curve" smooth="yes"/>
      <point x="406" y="665"/>
      <point x="350" y="728"/>
      <point x="269" y="728" type="curve" smooth="yes"/>
      <point x="188" y="728"/>
      <point x="134" y="665"/>
      <point x="134" y="560" type="curve" smooth="yes"/>
    </contour>
  </outline>
</glyph>
<glyph name="trademark" format="2">
	<advance width="900"/>
	<unicode hex="2122"/>
	<outline>
		<contour>
			<point x="60" y="644" type="line"/>
			<point x="352" y="644" type="line"/>
			<point x="352" y="690" type="line"/>
			<point x="60" y="690" type="line"/>
		</contour>
		<contour>
			<point x="180" y="290" type="line"/>
			<point x="232" y="290" type="line"/>
			<point x="232" y="690" type="line"/>
			<point x="180" y="690" type="line"/>
		</contour>
		<contour>
			<point x="432" y="290" type="line"/>
			<point x="480" y="290" type="line"/>
			<point x="480" y="690" type="line"/>
			<point x="432" y="690" type="line"/>
		</contour>
		<contour>
			<point x="462" y="690" type="line"/>
			<point x="586" y="369" type="line"/>
			<point x="614" y="369" type="line"/>
			<point x="614" y="426" type="line"/>
			<point x="512" y="690" type="line"/>
		</contour>
		<contour>
			<point x="608" y="426" type="line"/>
			<point x="608" y="369" type="line"/>
			<point x="636" y="369" type="line"/>
			<point x="760" y="690" type="line"/>
			<point x="710" y="690" type="line"/>
		</contour>
		<contour>
			<point x="742" y="290" type="line"/>
			<point x="790" y="290" type="line"/>
			<point x="790" y="690" type="line"/>
			<point x="742" y="690" type="line"/>
		</contour>
	</outline>
</glyph>
<glyph name="partialdiff" format="2">
	<advance width="640"/>
	<unicode hex="2202"/>
	<outline>
		<contour>
			<point x="195" y="480"/>
			<point x="80" y="360"/>
			<point x="80" y="200" type="curve" smooth="yes"/>
			<point x="80" y="71"/>
			<point x="156" y="-8"/>
			<point x="260" y="-8" type="curve" smooth="yes"/>
			<point x="410" y="-8"/>
			<point x="532" y="140"/>
			<point x="532" y="390" type="curve" smooth="yes"/>
			<point x="532" y="560"/>
			<point x="465" y="728"/>
			<point x="300" y="728" type="curve" smooth="yes"/>
			<point x="260" y="728"/>
			<point x="228" y="720"/>
			<point x="200" y="712" type="curve"/>
			<point x="212" y="658" type="line"/>
			<point x="232" y="664"/>
			<point x="260" y="673"/>
			<point x="290" y="673" type="curve" smooth="yes"/>
			<point x="420" y="673"/>
			<point x="472" y="542"/>
			<point x="472" y="390" type="curve" smooth="yes"/>
			<point x="472" y="186"/>
			<point x="386" y="47"/>
			<point x="270" y="47" type="curve" smooth="yes"/>
			<point x="194" y="47"/>
			<point x="140" y="93"/>
			<point x="140" y="200" type="curve" smooth="yes"/>
			<point x="140" y="336"/>
			<point x="226" y="425"/>
			<point x="330" y="425" type="curve" smooth="yes"/>
			<point x="390" y="425"/>
			<point x="450" y="380"/>
			<point x="480" y="320" type="curve"/>
			<point x="490" y="390" type="line"/>
			<point x="460" y="430"/>
			<point x="410" y="480"/>
			<point x="320" y="480" type="curve" smooth="yes"/>
		</contour>
	</outline>
</glyph>
<glyph name="product" format="2">
  <advance width="710"/>
  <unicode hex="220F"/>
  <outline>
    <contour>
      <point x="155" y="-185" type="line"/>
      <point x="217" y="-185" type="line"/>
      <point x="217" y="690" type="line"/>
      <point x="155" y="690" type="line"/>
    </contour>
    <contour>
      <point x="75" y="634" type="line"/>
      <point x="635" y="634" type="line"/>
      <point x="635" y="690" type="line"/>
      <point x="75" y="690" type="line"/>
    </contour>
    <contour>
      <point x="493" y="-185" type="line"/>
      <point x="555" y="-185" type="line"/>
      <point x="555" y="690" type="line"/>
      <point x="493" y="690" type="line"/>
    </contour>
  </outline>
</glyph>
<glyph name="summation" format="2">
	<advance width="660"/>
	<unicode hex="2211"/>
	<outline>
		<contour>
			<point x="100" y="-185" type="line"/>
			<point x="580" y="-185" type="line"/>
			<point x="580" y="-129" type="line"/>
			<point x="150" y="-129" type="line"/>
			<point x="100" y="-135" type="line"/>
		</contour>
		<contour>
			<point x="172" y="-135" type="line"/>
			<point x="422" y="260" type="line"/>
			<point x="350" y="260" type="line"/>
			<point x="100" y="-135" type="line"/>
		</contour>
		<contour>
			<point x="350" y="256" type="line"/>
			<point x="422" y="260" type="line"/>
			<point x="172" y="644" type="line"/>
			<point x="100" y="640" type="line"/>
		</contour>
		<contour>
			<point x="100" y="640" type="line"/>
			<point x="150" y="634" type="line"/>
			<point x="580" y="634" type="line"/>
			<point x="580" y="690" type="line"/>
			<point x="100" y="690" type="line"/>
		</contour>
	</outline>
</glyph>
<glyph name="minus" format="1">
  <advance width="600"/>
  <unicode hex="2212"/>
  <outline>
    <contour>
      <point x="79.0" y="263" type="line"/>
      <point x="521.0" y="263" type="line"/>
      <point x="521.0" y="317" type="line"/>
      <point x="79.0" y="317" type="line"/>
    </contour>
  </outline>
</glyph>
<glyph name="divisionslash" format="2">
	<advance width="485"/>
	<unicode hex="2215"/>
	<outline>
		<contour>
			<point x="0" y="0" type="line"/>
			<point x="65" y="0" type="line"/>
			<point x="485" y="690" type="line"/>
			<point x="420" y="690" type="line"/>
		</contour>
	</outline>
</glyph>
<glyph name="radical" format="1">
  <advance width="680"/>
  <unicode hex="221A"/>
  <outline>
    <contour>
      <point x="110" y="330" type="line"/>
      <point x="302" y="-185" type="line"/>
      <point x="334" y="-185" type="line"/>
      <point x="334" y="-100" type="line"/>
      <point x="179" y="330" type="line"/>
    </contour>
    <contour>
      <point x="328" y="-100" type="line"/>
      <point x="328" y="-185" type="line"/>
      <point x="354" y="-185" type="line"/>
      <point x="680" y="690" type="line"/>
      <point x="615" y="690" type="line"/>
    </contour>
    <contour>
      <point x="30" y="274" type="line"/>
      <point x="170" y="274" type="line"/>
      <point x="170" y="330" type="line"/>
      <point x="30" y="330" type="line"/>
    </contour>
  </outline>
</glyph>
<glyph name="integral" format="1">
  <advance width="420"/>
  <unicode hex="222B"/>
  <outline>
    <contour>
      <point x="26" y="-177" type="line"/>
      <point x="46" y="-187"/>
      <point x="74" y="-193"/>
      <point x="96" y="-193" type="curve" smooth="yes"/>
      <point x="177" y="-193"/>
      <point x="230" y="-136"/>
      <point x="230" y="-48" type="curve" smooth="yes"/>
      <point x="230" y="582" type="line" smooth="yes"/>
      <point x="230" y="647"/>
      <point x="260" y="673"/>
      <point x="306" y="673" type="curve" smooth="yes"/>
      <point x="325" y="673"/>
      <point x="343" y="669"/>
      <point x="361" y="661" type="curve"/>
      <point x="374" y="712" type="line"/>
      <point x="354" y="722"/>
      <point x="326" y="728"/>
      <point x="304" y="728" type="curve" smooth="yes"/>
      <point x="223" y="728"/>
      <point x="170" y="671"/>
      <point x="170" y="583" type="curve" smooth="yes"/>
      <point x="170" y="-47" type="line" smooth="yes"/>
      <point x="170" y="-112"/>
      <point x="140" y="-138"/>
      <point x="94" y="-138" type="curve" smooth="yes"/>
      <point x="75" y="-138"/>
      <point x="57" y="-134"/>
      <point x="39" y="-126" type="curve"/>
    </contour>
  </outline>
</glyph>
<glyph name="approxequal" format="2">
  <advance width="600"/>
  <unicode hex="2248"/>
  <outline>
    <contour>
      <point x="94.0" y="133" type="line"/>
      <point x="120.0" y="153"/>
      <point x="159.0" y="183"/>
      <point x="199.0" y="183" type="curve" smooth="yes"/>
      <point x="269.0" y="183"/>
      <point x="317.0" y="123"/>
      <point x="397.0" y="123" type="curve" smooth="yes"/>
      <point x="457.0" y="123"/>
      <point x="500.0" y="152"/>
      <point x="538.0" y="182" type="curve"/>
      <point x="506.0" y="227" type="line"/>
      <point x="480.0" y="207"/>
      <point x="441.0" y="177"/>
      <point x="401.0" y="177" type="curve" smooth="yes"/>
      <point x="331.0" y="177"/>
      <point x="283.0" y="237"/>
      <point x="203.0" y="237" type="curve" smooth="yes"/>
      <point x="143.0" y="237"/>
      <point x="100.0" y="208"/>
      <point x="62.0" y="178" type="curve"/>
    </contour>
    <contour>
      <point x="94.0" y="353" type="line"/>
      <point x="120.0" y="373"/>
      <point x="159.0" y="403"/>
      <point x="199.0" y="403" type="curve" smooth="yes"/>
      <point x="269.0" y="403"/>
      <point x="317.0" y="343"/>
      <point x="397.0" y="343" type="curve" smooth="yes"/>
      <point x="457.0" y="343"/>
      <point x="500.0" y="372"/>
      <point x="538.0" y="402" type="curve"/>
      <point x="506.0" y="447" type="line"/>
      <point x="480.0" y="427"/>
      <point x="441.0" y="397"/>
      <point x="401.0" y="397" type="curve" smooth="yes"/>
      <point x="331.0" y="397"/>
      <point x="283.0" y="457"/>
      <point x="203.0" y="457" type="curve" smooth="yes"/>
      <point x="143.0" y="457"/>
      <point x="100.0" y="428"/>
      <point x="62.0" y="398" type="curve"/>
    </contour>
  </outline>
</glyph>
<glyph name="notequal" format="2">
  <advance width="600"/>
  <unicode hex="2260"/>
  <outline>
    <contour>
      <point x="79.0" y="153" type="line"/>
      <point x="521.0" y="153" type="line"/>
      <point x="521.0" y="207" type="line"/>
      <point x="79.0" y="207" type="line"/>
    </contour>
    <contour>
      <point x="79.0" y="373" type="line"/>
      <point x="521.0" y="373" type="line"/>
      <point x="521.0" y="427" type="line"/>
      <point x="79.0" y="427" type="line"/>
    </contour>
    <contour>
      <point x="160.0" y="-30" type="line"/>
      <point x="220.0" y="-30" type="line"/>
      <point x="440.0" y="610" type="line"/>
      <point x="380.0" y="610" type="line"/>
    </contour>
  </outline>
</glyph>
<glyph name="lessequal" format="2">
  <advance width="600"/>
  <unicode hex="2264"/>
  <outline>
    <contour>
      <point x="80.0" y="76" type="line"/>
      <point x="480.0" y="76" type="line"/>
      <point x="480.0" y="130" type="line"/>
      <point x="80.0" y="130" type="line"/>
    </contour>
    <contour>
      <point x="80" y="330" type="line"/>
      <point x="480" y="162" type="line"/>
      <point x="480" y="224" type="line"/>
      <point x="118" y="371" type="line"/>
      <point x="80" y="371" type="line"/>
    </contour>
    <contour>
      <point x="80" y="344" type="line"/>
      <point x="118" y="344" type="line"/>
      <point x="480" y="490" type="line"/>
      <point x="480" y="550" type="line"/>
      <point x="80" y="382" type="line"/>
    </contour>
  </outline>
</glyph>
<glyph name="greaterequal" format="2">
  <advance width="600"/>
  <unicode hex="2265"/>
  <outline>
    <contour>
      <point x="120" y="76" type="line"/>
      <point x="520.0" y="76" type="line"/>
      <point x="520.0" y="130" type="line"/>
      <point x="120" y="130" type="line"/>
    </contour>
    <contour>
      <point x="120" y="162" type="line"/>
      <point x="520" y="330" type="line"/>
      <point x="520" y="368" type="line"/>
      <point x="482" y="368" type="line"/>
      <point x="120" y="222" type="line"/>
    </contour>
    <contour>
      <point x="120" y="488" type="line"/>
      <point x="482" y="341" type="line"/>
      <point x="520" y="341" type="line"/>
      <point x="520" y="382" type="line"/>
      <point x="120" y="550" type="line"/>
    </contour>
  </outline>
</glyph>
<glyph name="lozenge" format="1">
  <advance width="660"/>
  <unicode hex="25CA"/>
  <outline>
    <contour>
      <point x="335" y="-60" type="line"/>
      <point x="121" y="300" type="line"/>
      <point x="60" y="290" type="line"/>
      <point x="298" y="-110" type="line"/>
      <point x="335" y="-110" type="line"/>
    </contour>
    <contour>
      <point x="60" y="290" type="line"/>
      <point x="125" y="290" type="line"/>
      <point x="333" y="640" type="line"/>
      <point x="333" y="690" type="line"/>
      <point x="298" y="690" type="line"/>
    </contour>
    <contour>
      <point x="600" y="290" type="line"/>
      <point x="535" y="290" type="line"/>
      <point x="327" y="-60" type="line"/>
      <point x="327" y="-110" type="line"/>
      <point x="362" y="-110" type="line"/>
    </contour>
    <contour>
      <point x="325" y="640" type="line"/>
      <point x="539" y="280" type="line"/>
      <point x="600" y="290" type="line"/>
      <point x="362" y="690" type="line"/>
      <point x="325" y="690" type="line"/>
    </contour>
  </outline>
</glyph>
<glyph name="leftanglebracket-math" format="2">
	<advance width="232"/>
	<unicode hex="27E8"/>
	<outline>
		<contour>
			<point x="188" y="-185" type="line"/>
			<point x="232" y="-185" type="line"/>
			<point x="49" y="268" type="line"/>
			<point x="232" y="720" type="line"/>
			<point x="187" y="720" type="line"/>
			<point x="0" y="268" type="line"/>
		</contour>
	</outline>
</glyph>
<glyph name="f_f" format="2">
	<advance width="659"/>
	<unicode hex="FB00"/>
	<outline>
		<contour>
			<point x="30" y="460" type="line"/>
			<point x="350" y="460" type="line"/>
			<point x="350" y="510" type="line"/>
			<point x="30" y="510" type="line"/>
		</contour>
		<contour>
			<point x="123" y="0" type="line"/>
			<point x="183" y="0" type="line"/>
			<point x="183" y="572" type="line" smooth="yes"/>
			<point x="183" y="645"/>
			<point x="214" y="674"/>
			<point x="267" y="674" type="curve" smooth="yes"/>
			<point x="291" y="674"/>
			<point x="314" y="668"/>
			<point x="342" y="654" type="curve"/>
			<point x="356" y="704" type="line"/>
			<point x="332" y="718"/>
			<point x="295" y="728"/>
			<point x="262" y="728" type="curve" smooth="yes"/>
			<point x="179" y="728"/>
			<point x="123" y="675"/>
			<point x="123" y="575" type="curve" smooth="yes"/>
		</contour>
		<contour>
			<point x="350" y="460" type="line"/>
			<point x="650" y="460" type="line"/>
			<point x="650" y="510" type="line"/>
			<point x="350" y="510" type="line"/>
		</contour>
		<contour>
			<point x="443" y="0" type="line"/>
			<point x="503" y="0" type="line"/>
			<point x="503" y="572" type="line" smooth="yes"/>
			<point x="503" y="645"/>
			<point x="534" y="674"/>
			<point x="587" y="674" type="curve" smooth="yes"/>
			<point x="611" y="674"/>
			<point x="634" y="668"/>
			<point x="662" y="654" type="curve"/>
			<point x="676" y="704" type="line"/>
			<point x="652" y="718"/>
			<point x="615" y="728"/>
			<point x="582" y="728" type="curve" smooth="yes"/>
			<point x="499" y="728"/>
			<point x="443" y="675"/>
			<point x="443" y="575" type="curve" smooth="yes"/>
		</contour>
	</outline>
</glyph>
<glyph name="I.alt" format="1">
  <advance width="282"/>
  <outline>
    <contour>
      <point x="110" y="0" type="line"/>
      <point x="172" y="0" type="line"/>
      <point x="172" y="690" type="line"/>
      <point x="110" y="690" type="line"/>
    </contour>
    <contour>
      <point x="141" y="690" type="move" name="top"/>
    </contour>
    <contour>
      <point x="141" y="0" type="move" name="bottom"/>
    </contour>
    <contour>
      <point x="110" y="0" type="move" name="ogonek"/>
    </contour>
  </outline>
</glyph>
<glyph name="a.alt" format="2">
	<advance width="524"/>
	<anchor x="249" y="510" name="top"/>
	<anchor x="249" y="0" name="bottom"/>
	<anchor x="426" y="0" name="ogonek"/>
	<outline>
		<contour>
			<point x="60" y="121" type="curve"/>
			<point x="60" y="49"/>
			<point x="115" y="-8"/>
			<point x="198" y="-8" type="curve"/>
			<point x="265" y="-8"/>
			<point x="340" y="30"/>
			<point x="379" y="88" type="curve"/>
			<point x="379" y="139" type="line"/>
			<point x="336" y="78"/>
			<point x="269" y="46"/>
			<point x="208" y="46" type="curve"/>
			<point x="150" y="46"/>
			<point x="119" y="81"/>
			<point x="119" y="128" type="curve"/>
			<point x="119" y="178"/>
			<point x="153" y="236"/>
			<point x="291" y="248" type="curve" smooth="yes"/>
			<point x="370" y="255" type="line"/>
			<point x="370" y="297" type="line"/>
			<point x="284" y="292" type="line" smooth="yes"/>
			<point x="119" y="282"/>
			<point x="60" y="207"/>
		</contour>
		<contour>
			<point x="74" y="472" type="curve"/>
			<point x="98" y="424" type="line"/>
			<point x="143" y="450"/>
			<point x="188" y="463"/>
			<point x="236" y="463" type="curve"/>
			<point x="313" y="463"/>
			<point x="364" y="423"/>
			<point x="364" y="324" type="curve" smooth="yes"/>
			<point x="364" y="115" type="line"/>
			<point x="369" y="83" type="line"/>
			<point x="369" y="19"/>
			<point x="402" y="-8"/>
			<point x="443" y="-8" type="curve" smooth="yes"/>
			<point x="456" y="-8"/>
			<point x="470" y="-5"/>
			<point x="481" y="0" type="curve"/>
			<point x="481" y="48" type="line"/>
			<point x="474" y="46"/>
			<point x="464" y="44"/>
			<point x="455" y="44" type="curve" smooth="yes"/>
			<point x="437" y="44"/>
			<point x="424" y="53"/>
			<point x="424" y="81" type="curve" smooth="yes"/>
			<point x="424" y="327" type="line" smooth="yes"/>
			<point x="424" y="454"/>
			<point x="346" y="518"/>
			<point x="240" y="518" type="curve"/>
			<point x="186" y="518"/>
			<point x="122" y="499"/>
		</contour>
	</outline>
</glyph>
<glyph name="acute.cap" format="1">
  <advance width="600"/>
  <outline>
    <contour>
      <point x="266" y="750" type="line"/>
      <point x="324" y="750" type="line"/>
      <point x="453" y="885" type="line"/>
      <point x="371" y="885" type="line"/>
    </contour>
    <contour>
      <point x="300.0" y="690.0" type="move" name="_top"/>
    </contour>
  </outline>
</glyph>
<glyph name="circumflex.cap" format="1">
  <advance width="600"/>
  <outline>
    <contour>
      <point x="161" y="750" type="line"/>
      <point x="217" y="750" type="line"/>
      <point x="338" y="885" type="line"/>
      <point x="259" y="885" type="line"/>
    </contour>
    <contour>
      <point x="262" y="885" type="line"/>
      <point x="383" y="750" type="line"/>
      <point x="439" y="750" type="line"/>
      <point x="341" y="885" type="line"/>
    </contour>
    <contour>
      <point x="300" y="690" type="move" name="_top"/>
    </contour>
  </outline>
</glyph>
<glyph name="circumflexcomb_acutecomb" format="2">
	<advance width="0"/>
	<anchor x="0" y="510" name="_top"/>
	<outline>
		<contour>
			<point x="109" y="667" type="line"/>
			<point x="164" y="667" type="line"/>
			<point x="268" y="817" type="line"/>
			<point x="194" y="817" type="line"/>
		</contour>
		<contour>
			<point x="-139" y="566" type="line"/>
			<point x="-83" y="566" type="line"/>
			<point x="35" y="701" type="line"/>
			<point x="-41" y="701" type="line"/>
		</contour>
		<contour>
			<point x="-35" y="701" type="line"/>
			<point x="83" y="566" type="line"/>
			<point x="139" y="566" type="line"/>
			<point x="41" y="701" type="line"/>
		</contour>
	</outline>
</glyph>
<glyph name="commaaccent.alt" format="2">
	<advance width="600"/>
	<anchor x="300" y="510" name="_top"/>
	<outline>
		<contour>
			<point x="258" y="667" type="curve" smooth="yes"/>
			<point x="258" y="640"/>
			<point x="276" y="621"/>
			<point x="300" y="621" type="curve" smooth="yes"/>
			<point x="324" y="621"/>
			<point x="342" y="640"/>
			<point x="342" y="664" type="curve" smooth="yes"/>
			<point x="342" y="685"/>
			<point x="330" y="700"/>
			<point x="312" y="705" type="curve"/>
			<point x="340" y="815" type="line"/>
			<point x="300" y="815" type="line"/>
			<point x="270" y="721" type="line" smooth="yes"/>
			<point x="264" y="703"/>
			<point x="258" y="685"/>
		</contour>
	</outline>
</glyph>
<glyph name="commaaccent" format="2">
	<advance width="600"/>
	<anchor x="300" y="0" name="_bottom"/>
	<outline>
		<contour>
			<point x="260" y="-300" type="line"/>
			<point x="300" y="-300" type="line"/>
			<point x="330" y="-206" type="line" smooth="yes"/>
			<point x="336" y="-188"/>
			<point x="342" y="-170"/>
			<point x="342" y="-152" type="curve" smooth="yes"/>
			<point x="342" y="-125"/>
			<point x="324" y="-106"/>
			<point x="300" y="-106" type="curve" smooth="yes"/>
			<point x="276" y="-106"/>
			<point x="258" y="-125"/>
			<point x="258" y="-149" type="curve" smooth="yes"/>
			<point x="258" y="-170"/>
			<point x="270" y="-185"/>
			<point x="288" y="-190" type="curve"/>
		</contour>
	</outline>
</glyph>
<glyph name="dieresis.cap" format="2">
	<advance width="600"/>
	<anchor x="300" y="690" name="_top"/>
	<outline>
		<contour>
			<point x="192" y="803" type="curve" smooth="yes"/>
			<point x="192" y="778"/>
			<point x="212" y="759"/>
			<point x="236" y="759" type="curve" smooth="yes"/>
			<point x="261" y="759"/>
			<point x="280" y="778"/>
			<point x="280" y="803" type="curve" smooth="yes"/>
			<point x="280" y="829"/>
			<point x="261" y="848"/>
			<point x="236" y="848" type="curve" smooth="yes"/>
			<point x="212" y="848"/>
			<point x="192" y="829"/>
		</contour>
		<contour>
			<point x="320" y="803" type="curve" smooth="yes"/>
			<point x="320" y="778"/>
			<point x="340" y="759"/>
			<point x="364" y="759" type="curve" smooth="yes"/>
			<point x="389" y="759"/>
			<point x="408" y="778"/>
			<point x="408" y="803" type="curve" smooth="yes"/>
			<point x="408" y="829"/>
			<point x="389" y="848"/>
			<point x="364" y="848" type="curve" smooth="yes"/>
			<point x="340" y="848"/>
			<point x="320" y="829"/>
		</contour>
	</outline>
</glyph>
<glyph name="hungarumlaut.cap" format="2">
	<advance width="600"/>
	<anchor x="300" y="690" name="_top"/>
	<outline>
		<contour>
			<point x="185" y="750" type="line"/>
			<point x="235" y="750" type="line"/>
			<point x="325" y="885" type="line"/>
			<point x="255" y="885" type="line"/>
		</contour>
		<contour>
			<point x="345" y="750" type="line"/>
			<point x="395" y="750" type="line"/>
			<point x="495" y="885" type="line"/>
			<point x="425" y="885" type="line"/>
		</contour>
	</outline>
</glyph>
<glyph name="macron.cap" format="2">
	<advance width="600"/>
	<anchor x="300" y="690" name="_top"/>
	<outline>
		<contour>
			<point x="164" y="780" type="line"/>
			<point x="436" y="780" type="line"/>
			<point x="436" y="830" type="line"/>
			<point x="164" y="830" type="line"/>
		</contour>
	</outline>
</glyph>
<glyph name="one.pl" format="1">
  <advance width="450"/>
  <outline>
    <contour>
      <point x="50" y="601" type="line"/>
      <point x="74" y="551" type="line"/>
      <point x="262" y="638" type="line"/>
      <point x="241" y="690" type="line"/>
    </contour>
    <contour>
      <point x="222" y="0" type="line"/>
      <point x="284" y="0" type="line"/>
      <point x="284" y="690" type="line"/>
      <point x="241" y="690" type="line"/>
      <point x="222" y="637" type="line"/>
    </contour>
  </outline>
</glyph>
<glyph name="seven.pl" format="1">
  <advance width="600"/>
  <outline>
    <contour>
      <point x="60" y="628" type="line"/>
      <point x="445" y="628" type="line"/>
      <point x="494" y="648" type="line"/>
      <point x="494" y="690" type="line"/>
      <point x="60" y="690" type="line"/>
    </contour>
    <contour>
      <point x="180" y="0" type="line"/>
      <point x="248" y="0" type="line"/>
      <point x="494" y="648" type="line"/>
      <point x="450" y="690" type="line"/>
    </contour>
  </outline>
</glyph>
<glyph name="tilde.cap" format="2">
	<advance width="600"/>
	<anchor x="300" y="690" name="_top"/>
	<anchor x="302" y="840" name="top"/>
	<outline>
		<contour>
			<point x="154" y="767" type="curve"/>
			<point x="198" y="767" type="line"/>
			<point x="205" y="812"/>
			<point x="222" y="828"/>
			<point x="243" y="828" type="curve" smooth="yes"/>
			<point x="280" y="828"/>
			<point x="298" y="762"/>
			<point x="357" y="762" type="curve"/>
			<point x="400" y="762"/>
			<point x="437" y="800"/>
			<point x="446" y="870" type="curve"/>
			<point x="402" y="870" type="line"/>
			<point x="395" y="825"/>
			<point x="378" y="809"/>
			<point x="358" y="809" type="curve" smooth="yes"/>
			<point x="318" y="809"/>
			<point x="301" y="875"/>
			<point x="243" y="875" type="curve"/>
			<point x="199" y="875"/>
			<point x="164" y="837"/>
		</contour>
	</outline>
</glyph>
<glyph name="uogonek.alt" format="1">
  <advance width="579"/>
  <outline>
    <contour>
      <point x="90" y="185" type="line" smooth="yes"/>
      <point x="90" y="57"/>
      <point x="163" y="-8"/>
      <point x="252" y="-8" type="curve" smooth="yes"/>
      <point x="321" y="-8"/>
      <point x="389" y="35"/>
      <point x="429" y="93" type="curve"/>
      <point x="429" y="144" type="line"/>
      <point x="385" y="83"/>
      <point x="325" y="47"/>
      <point x="260" y="47" type="curve" smooth="yes"/>
      <point x="199" y="47"/>
      <point x="150" y="87"/>
      <point x="150" y="190" type="curve" smooth="yes"/>
      <point x="150" y="510" type="line"/>
      <point x="90" y="510" type="line"/>
    </contour>
    <contour>
      <point x="414" y="120" type="line"/>
      <point x="419" y="84" type="line"/>
      <point x="419" y="20"/>
      <point x="452" y="-8"/>
      <point x="493" y="-8" type="curve" smooth="yes"/>
      <point x="506" y="-8"/>
      <point x="520" y="-5"/>
      <point x="531" y="0" type="curve"/>
      <point x="531" y="48" type="line"/>
      <point x="524" y="46"/>
      <point x="514" y="44"/>
      <point x="505" y="44" type="curve" smooth="yes"/>
      <point x="487" y="44"/>
      <point x="474" y="53"/>
      <point x="474" y="81" type="curve" smooth="yes"/>
      <point x="474" y="510" type="line"/>
      <point x="414" y="510" type="line"/>
    </contour>
    <contour>
      <point x="406" y="-108" type="curve" smooth="yes"/>
      <point x="406" y="-160"/>
      <point x="446" y="-193"/>
      <point x="496" y="-193" type="curve" smooth="yes"/>
      <point x="528" y="-193"/>
      <point x="552" y="-184"/>
      <point x="576" y="-170" type="curve"/>
      <point x="560" y="-132" type="line"/>
      <point x="544" y="-141"/>
      <point x="524" y="-149"/>
      <point x="501" y="-149" type="curve" smooth="yes"/>
      <point x="471" y="-149"/>
      <point x="452" y="-130"/>
      <point x="452" y="-100" type="curve" smooth="yes"/>
      <point x="452" y="-64"/>
      <point x="486" y="-30"/>
      <point x="531" y="0" type="curve"/>
      <point x="476" y="0" type="line"/>
      <point x="440" y="-20"/>
      <point x="406" y="-62"/>
    </contour>
  </outline>
</glyph>
